<svg width="32" height="32" viewBox="0 0 32 32" fill="none" xmlns="http://www.w3.org/2000/svg">
<path d="M9 22C10.1046 22 11 21.1046 11 20C11 18.8954 10.1046 18 9 18C7.89543 18 7 18.8954 7 20C7 21.1046 7.89543 22 9 22Z" fill="white"/>
<path d="M16 20C15.2089 20 14.4355 19.7654 13.7777 19.3259C13.1199 18.8864 12.6072 18.2616 12.3045 17.5307C12.0017 16.7998 11.9225 15.9956 12.0769 15.2196C12.2312 14.4437 12.6122 13.731 13.1716 13.1716C13.731 12.6122 14.4437 12.2312 15.2196 12.0769C15.9956 11.9225 16.7998 12.0017 17.5307 12.3045C18.2616 12.6072 18.8864 13.1199 19.3259 13.7777C19.7654 14.4355 20 15.2089 20 16C19.9968 17.0599 19.5744 18.0755 18.8249 18.8249C18.0755 19.5744 17.0599 19.9968 16 20V20ZM16 14C15.6044 14 15.2178 14.1173 14.8889 14.3371C14.56 14.5568 14.3036 14.8692 14.1522 15.2346C14.0009 15.6001 13.9613 16.0022 14.0384 16.3902C14.1156 16.7781 14.3061 17.1345 14.5858 17.4142C14.8655 17.6939 15.2219 17.8844 15.6098 17.9616C15.9978 18.0387 16.3999 17.9991 16.7654 17.8478C17.1308 17.6964 17.4432 17.44 17.6629 17.1111C17.8827 16.7822 18 16.3956 18 16C17.9984 15.4701 17.7872 14.9623 17.4125 14.5875C17.0377 14.2128 16.5299 14.0016 16 14V14Z" fill="white"/>
<path d="M23 14C24.1046 14 25 13.1046 25 12C25 10.8954 24.1046 10 23 10C21.8954 10 21 10.8954 21 12C21 13.1046 21.8954 14 23 14Z" fill="white"/>
<path d="M23 24.759L16 28.842L5 22.426V9.57399L16 3.15799L27 9.57399V22H29V8.99999C29.0001 8.82519 28.9543 8.65343 28.8673 8.50183C28.7802 8.35023 28.655 8.22409 28.504 8.13599L16.504 1.13599C16.351 1.04673 16.1771 0.999695 16 0.999695C15.8229 0.999695 15.649 1.04673 15.496 1.13599L3.496 8.13599C3.34502 8.22409 3.21978 8.35023 3.13275 8.50183C3.04572 8.65343 2.99995 8.82519 3 8.99999V23C2.99995 23.1748 3.04572 23.3466 3.13275 23.4982C3.21978 23.6498 3.34502 23.7759 3.496 23.864L15.496 30.864C15.649 30.9533 15.8229 31.0003 16 31.0003C16.1771 31.0003 16.351 30.9533 16.504 30.864L24 26.49L23 24.759Z" fill="white"/>
</svg>
