<svg width="512" height="512" viewBox="0 0 512 512" fill="none" xmlns="http://www.w3.org/2000/svg">
<path d="M494.123 208.203C488.884 199.404 483.935 191.092 481.247 182.812C478.392 174.018 477.433 164.061 476.419 153.519C474.797 136.674 473.121 119.255 463.117 105.509C453.009 91.6199 436.891 84.6469 421.304 77.9029C411.651 73.7269 402.534 69.7819 395.177 64.4279C387.959 59.1749 381.482 51.7909 374.624 43.9739C363.356 31.1299 351.705 17.8489 335.125 12.4659C319.262 7.31491 302.332 11.0679 285.959 14.6959C275.912 16.9229 265.523 19.2249 256 19.2249C246.478 19.2249 236.088 16.9219 226.041 14.6959C209.668 11.0679 192.737 7.31491 176.874 12.4669C160.295 17.8499 148.644 31.1309 137.376 43.9749C130.519 51.7909 124.041 59.1749 116.823 64.4279C114.283 66.2769 111.385 68.0629 107.963 69.8879C104.308 71.8369 102.926 76.3799 104.875 80.0349C106.824 83.6899 111.367 85.0709 115.023 83.1219C119.065 80.9659 122.542 78.8179 125.65 76.5549C134.217 70.3199 141.556 61.9549 148.653 53.8659C159.041 42.0259 168.852 30.8419 181.508 26.7319C193.487 22.8439 207.724 25.9989 222.797 29.3399C233.632 31.7409 244.837 34.2239 256.002 34.2239C267.167 34.2239 278.371 31.7409 289.207 29.3389C304.282 25.9989 318.521 22.8439 330.495 26.7309C343.151 30.8399 352.963 42.0239 363.351 53.8649C370.448 61.9539 377.786 70.3189 386.354 76.5539C395.054 82.8859 405.372 87.3499 415.351 91.6669C429.722 97.8839 443.295 103.757 450.992 114.333C458.585 124.767 459.996 139.43 461.491 154.954C462.538 165.835 463.621 177.086 466.984 187.442C470.191 197.32 475.808 206.753 481.239 215.875C489.342 229.494 497 242.355 497 256C497 269.645 489.342 282.507 481.234 296.124C475.803 305.246 470.187 314.678 466.98 324.555C463.617 334.911 462.535 346.162 461.487 357.044C459.993 372.567 458.582 387.231 450.988 397.665C443.291 408.241 429.718 414.113 415.347 420.33C405.368 424.647 395.05 429.111 386.35 435.443C377.783 441.678 370.444 450.043 363.347 458.132C352.959 469.972 343.148 481.156 330.492 485.265C318.515 489.154 304.278 485.998 289.203 482.657C278.367 480.256 267.163 477.773 255.999 477.773C244.834 477.773 233.63 480.256 222.794 482.657C207.72 485.998 193.483 489.153 181.505 485.265C168.849 481.156 159.037 469.972 148.65 458.131C141.553 450.042 134.215 441.677 125.647 435.442C116.947 429.11 106.628 424.646 96.65 420.329C82.28 414.112 68.706 408.239 61.009 397.664C53.416 387.23 52.005 372.567 50.51 357.043C49.463 346.162 48.38 334.911 45.018 324.555C41.811 314.678 36.195 305.245 30.764 296.124C22.658 282.507 15 269.645 15 256C15 242.355 22.658 229.494 30.766 215.877C36.197 206.755 41.813 197.322 45.02 187.445C48.383 177.089 49.465 165.837 50.513 154.956C52.007 139.432 53.418 124.769 61.012 114.335C65.387 108.324 71.941 103.347 82.264 98.1979C85.971 96.3489 87.477 91.8449 85.628 88.1389C83.779 84.4319 79.275 82.9259 75.569 84.7749C67.093 89.0029 56.4 95.1809 48.883 105.51C38.879 119.256 37.203 136.674 35.581 153.52C34.567 164.062 33.608 174.019 30.753 182.814C28.065 191.094 23.116 199.405 17.877 208.204C9.088 222.964 0 238.228 0 256C0 273.773 9.088 289.037 17.877 303.798C23.116 312.597 28.065 320.908 30.753 329.188C33.608 337.982 34.566 347.939 35.581 358.48C37.202 375.326 38.879 392.745 48.883 406.491C58.991 420.38 75.109 427.353 90.696 434.097C100.349 438.273 109.467 442.218 116.823 447.572C124.041 452.825 130.518 460.208 137.376 468.025C148.644 480.869 160.296 494.151 176.875 499.533C182.462 501.347 188.179 502.057 193.959 502.057C204.592 502.057 215.434 499.654 226.041 497.304C236.088 495.077 246.478 492.775 256 492.775C265.523 492.775 275.912 495.077 285.959 497.304C302.332 500.932 319.262 504.685 335.126 499.533C351.705 494.15 363.356 480.869 374.623 468.025C381.481 460.208 387.959 452.825 395.177 447.571C402.533 442.218 411.651 438.273 421.304 434.096C436.891 427.352 453.009 420.379 463.117 406.49C473.121 392.744 474.797 375.325 476.419 358.48C477.433 347.938 478.392 337.981 481.247 329.187C483.935 320.907 488.884 312.596 494.123 303.797C502.912 289.036 512 273.772 512 256C512 238.228 502.912 222.964 494.123 208.203V208.203Z" fill="white"/>
<path d="M72.054 196.233C69.924 202.794 65.951 209.464 61.746 216.527C54.523 228.658 47.054 241.202 47.054 256C47.054 270.798 54.523 283.342 61.746 295.474C65.951 302.537 69.923 309.208 72.054 315.768C74.321 322.75 75.09 330.746 75.905 339.212C77.237 353.057 78.615 367.374 86.953 378.831C95.375 390.404 108.622 396.135 121.432 401.677C129.183 405.031 136.504 408.198 142.34 412.445C148.064 416.611 153.264 422.538 158.769 428.814C168.03 439.371 177.606 450.286 191.418 454.771C196.112 456.295 200.893 456.89 205.708 456.89C214.464 456.89 223.338 454.923 232.021 452.999C240.462 451.128 248.435 449.361 255.999 449.361C263.563 449.361 271.536 451.128 279.977 452.999C293.437 455.982 307.352 459.067 320.58 454.771C334.391 450.286 343.967 439.371 353.228 428.814C358.733 422.539 363.934 416.611 369.657 412.445C375.493 408.198 382.814 405.031 390.565 401.677C403.375 396.134 416.622 390.404 425.044 378.831C433.382 367.374 434.759 353.058 436.092 339.213C436.907 330.747 437.677 322.75 439.944 315.769C442.074 309.208 446.046 302.537 450.252 295.474C457.475 283.343 464.944 270.799 464.944 256.001C464.944 241.204 457.475 228.659 450.252 216.528C446.047 209.465 442.075 202.794 439.944 196.233C437.677 189.252 436.907 181.255 436.092 172.789C434.76 158.944 433.382 144.628 425.044 133.171C416.622 121.598 403.375 115.867 390.565 110.325C382.814 106.971 375.493 103.804 369.657 99.5568C363.933 95.3908 358.733 89.4638 353.228 83.1878C343.967 72.6308 334.391 61.7158 320.58 57.2308C307.351 52.9358 293.436 56.0198 279.977 59.0028C271.536 60.8738 263.563 62.6408 255.999 62.6408C248.435 62.6408 240.462 60.8738 232.021 59.0028C218.562 56.0198 204.645 52.9358 191.418 57.2308C177.606 61.7148 168.03 72.6308 158.769 83.1878C153.264 89.4628 148.064 95.3908 142.34 99.5568C136.504 103.804 129.183 106.972 121.432 110.325C108.622 115.867 95.375 121.598 86.953 133.171C78.615 144.628 77.238 158.944 75.905 172.789C75.09 181.254 74.321 189.25 72.054 196.233V196.233ZM90.836 174.225C92.028 161.839 93.154 150.141 99.081 141.996C105.092 133.737 115.922 129.051 127.389 124.09C135.549 120.56 143.987 116.909 151.167 111.683C158.24 106.536 164.242 99.6948 170.046 93.0788C178.334 83.6308 186.163 74.7068 196.051 71.4968C205.39 68.4658 216.749 70.9818 228.776 73.6468C237.634 75.6098 246.794 77.6398 256 77.6398C265.206 77.6398 274.366 75.6098 283.224 73.6468C295.249 70.9808 306.607 68.4628 315.949 71.4968C325.837 74.7068 333.666 83.6308 341.954 93.0788C347.758 99.6948 353.76 106.536 360.833 111.683C368.013 116.909 376.451 120.56 384.611 124.09C396.077 129.051 406.907 133.736 412.919 141.996C418.846 150.141 419.972 161.839 421.164 174.225C422.02 183.122 422.906 192.322 425.68 200.865C428.329 209.024 432.923 216.739 437.366 224.201C443.836 235.067 449.947 245.33 449.947 256C449.947 266.67 443.836 276.934 437.366 287.799C432.923 295.26 428.329 302.976 425.68 311.135C422.906 319.678 422.02 328.878 421.164 337.775C419.972 350.161 418.846 361.86 412.919 370.004C406.908 378.263 396.078 382.949 384.611 387.91C376.451 391.44 368.013 395.091 360.833 400.317C353.76 405.464 347.758 412.306 341.954 418.921C333.666 428.369 325.837 437.292 315.949 440.503C306.609 443.536 295.25 441.018 283.224 438.353C274.366 436.39 265.206 434.36 256 434.36C246.794 434.36 237.634 436.39 228.776 438.353C216.751 441.018 205.391 443.536 196.051 440.503C186.163 437.293 178.334 428.369 170.046 418.921C164.242 412.305 158.24 405.464 151.167 400.317C143.987 395.091 135.549 391.441 127.389 387.91C115.923 382.949 105.093 378.264 99.081 370.004C93.154 361.859 92.028 350.16 90.836 337.775C89.98 328.878 89.095 319.679 86.321 311.136C83.672 302.977 79.078 295.262 74.635 287.8C68.165 276.934 62.054 266.671 62.054 256C62.054 245.33 68.165 235.067 74.635 224.201C79.077 216.739 83.672 209.023 86.321 200.865C89.094 192.322 89.98 183.122 90.836 174.225V174.225Z" fill="white"/>
<path d="M228.983 355.427C228.545 355.427 228.108 355.42 227.669 355.405C216.581 355.029 206.155 349.921 199.064 341.389L161.831 296.59C153.578 286.659 154.942 271.865 164.873 263.611L175.311 254.936C185.243 246.683 200.035 248.047 208.29 257.978L227.048 280.548C228.102 281.816 229.446 282.045 230.153 282.069C230.853 282.093 232.215 281.956 233.353 280.761C233.416 280.695 233.48 280.63 233.546 280.566L329.352 187.09C333.656 182.627 339.434 180.089 345.637 179.938C351.881 179.782 357.829 182.079 362.358 186.393L372.185 195.755C381.535 204.661 381.895 219.513 372.989 228.863C372.937 228.918 372.884 228.971 372.831 229.024L321.92 279.345C318.973 282.258 314.224 282.229 311.314 279.283C308.402 276.337 308.43 271.588 311.375 268.677L362.193 218.447C365.328 215.082 365.177 209.794 361.839 206.614L352.011 197.252C350.383 195.701 348.247 194.871 346 194.931C343.752 194.986 341.66 195.912 340.109 197.54C340.045 197.606 339.981 197.671 339.916 197.735L244.106 291.214C240.333 295.113 235.051 297.245 229.644 297.056C224.165 296.871 219.014 294.347 215.511 290.131L196.753 267.561C193.786 263.991 188.467 263.501 184.898 266.467L174.459 275.142C170.889 278.109 170.399 283.427 173.365 286.997L210.598 331.796C214.955 337.039 221.362 340.178 228.175 340.408C234.982 340.644 241.592 337.941 246.294 333.005C246.346 332.95 246.399 332.897 246.452 332.844L288.501 291.282C291.448 288.369 296.197 288.398 299.108 291.344C302.02 294.29 301.992 299.039 299.047 301.95L257.074 343.437C249.731 351.103 239.562 355.427 228.983 355.427V355.427Z" fill="white"/>
</svg>
