<svg width="512" height="512" viewBox="0 0 512 512" fill="none" xmlns="http://www.w3.org/2000/svg">
<g clip-path="url(#clip0)">
<path d="M315.046 361.686H286.979C282.837 361.686 279.479 365.044 279.479 369.186C279.479 373.329 282.837 376.686 286.979 376.686H315.046C319.188 376.686 322.546 373.329 322.546 369.186C322.546 365.044 319.188 361.686 315.046 361.686Z" fill="white"/>
<path d="M480.248 281.394L439.407 265.641L418.584 244.818C417.247 243.481 415.524 242.757 413.764 242.644V226.075C423.578 215.611 430.564 202.36 433.383 187.432C435.133 187.511 436.9 187.37 438.643 187.014C448.622 184.971 455.865 175.712 455.865 165V159.531C455.865 153.334 453.352 147.646 449.26 143.579C455.883 107.559 450.428 78.205 433.414 58.558C416.957 39.555 390.443 30.472 356.742 32.295C325.606 33.978 305.506 48.304 299.138 53.545C295.652 53.959 289.714 55.183 283.704 58.789C275.374 63.787 265.445 74.286 265.445 95.919C265.445 114.791 268.461 130.547 270.645 139.486C263.325 143.052 258.428 150.78 258.428 159.615V164.999C258.428 175.711 265.671 184.97 275.65 187.013C277.393 187.37 279.161 187.51 280.91 187.431C283.729 202.359 290.716 215.61 300.529 226.074V242.643C298.769 242.756 297.045 243.48 295.709 244.817L274.886 265.64L234.045 281.393C230.512 282.755 227.137 284.522 224.015 286.643C220.589 288.971 219.699 293.635 222.026 297.061C223.477 299.197 225.836 300.347 228.236 300.347C229.687 300.347 231.153 299.926 232.444 299.05C234.621 297.571 236.976 296.339 239.443 295.387L277.346 280.767L306.326 324.238C309.918 329.627 315.676 333.084 322.121 333.722C322.838 333.793 323.555 333.828 324.267 333.828C327.998 333.828 331.618 332.847 334.822 331.034L328.603 472.102C328.42 476.24 331.627 479.743 335.766 479.925C335.878 479.93 335.99 479.932 336.102 479.932C340.092 479.932 343.412 476.787 343.589 472.762L349.361 341.821H364.931L370.703 472.762C370.88 476.788 374.2 479.932 378.19 479.932C378.302 479.932 378.414 479.93 378.526 479.925C382.664 479.743 385.871 476.24 385.689 472.102L379.47 331.034C382.674 332.847 386.293 333.828 390.025 333.828C390.737 333.828 391.454 333.793 392.171 333.722C398.616 333.084 404.373 329.627 407.966 324.238L436.946 280.767L474.849 295.387C480.165 297.437 484.741 300.708 488.339 304.789L462.408 330.72C453.039 340.089 447.88 352.545 447.88 365.793V472.433C447.88 476.575 451.238 479.933 455.38 479.933C459.522 479.933 462.88 476.575 462.88 472.433V365.793C462.88 356.552 466.479 347.862 473.014 341.327L495.772 318.569C496.686 321.922 497.113 325.447 496.969 329.051L491.16 472.129C490.992 476.268 494.211 479.759 498.349 479.928C498.453 479.932 498.556 479.934 498.659 479.934C502.66 479.934 505.984 476.773 506.147 472.739L511.958 329.657C512.809 308.433 500.066 289.038 480.248 281.394ZM295.592 184.339C294.269 177.138 287.601 171.904 280.404 172.437C279.835 172.478 279.249 172.438 278.659 172.318C275.677 171.708 273.428 168.561 273.428 165V159.614C273.428 156.135 275.753 153.001 278.72 152.48C281.224 152.04 283.622 152.959 285.139 154.938C286.516 156.733 288.353 158.017 290.45 158.649C293.522 159.577 296.909 159.032 299.513 157.194C304.203 153.883 308.341 149.838 311.812 145.17C314.284 141.846 313.592 137.148 310.269 134.677C306.944 132.205 302.247 132.896 299.775 136.22C298.044 138.548 296.088 140.661 293.935 142.531C291.557 140.497 288.779 139.027 285.802 138.188C283.875 130.806 280.445 114.991 280.445 95.917C280.445 84.43 283.986 76.359 290.969 71.929C296.418 68.472 302.185 68.334 302.181 68.333C304.098 68.333 305.964 67.578 307.356 66.261C307.539 66.089 325.976 48.979 357.55 47.272C386.452 45.712 408.764 53.008 422.073 68.376C435.487 83.866 439.954 107.647 435.108 137.412C433.099 137.341 430.9 137.493 428.711 137.858L421.665 120.936C420.227 117.484 416.461 115.62 412.843 116.563C412.146 116.745 342.885 134.303 313.844 98.147C311.251 94.918 306.531 94.402 303.3 96.996C300.071 99.59 299.555 104.31 302.15 107.54C331.806 144.462 390.65 136.43 410.238 132.513L415.687 145.598C418.03 151.223 424.024 154.295 429.932 152.902C432.357 152.331 434.674 152.318 435.544 152.49C438.577 153.094 440.864 156.119 440.864 159.529V164.999C440.864 168.561 438.615 171.707 435.633 172.317C435.044 172.438 434.455 172.478 433.888 172.436C426.692 171.912 420.024 177.136 418.7 184.339C413.244 214.043 387.357 235.603 357.146 235.603C326.935 235.603 301.048 214.043 295.592 184.339ZM328.863 316.915C326.961 318.817 324.75 318.91 323.6 318.796C322.451 318.683 320.3 318.157 318.808 315.919L289.613 272.127L301.354 260.386L346.174 299.604L328.863 316.915ZM350.022 326.822L350.476 316.514L357.145 309.845L363.814 316.514L364.268 326.822H350.022ZM357.146 289.272L315.529 252.857V238.503C327.629 246.198 341.945 250.603 357.146 250.603C372.347 250.603 386.664 246.198 398.764 238.503V252.857L357.146 289.272ZM395.486 315.919C393.993 318.158 391.842 318.683 390.694 318.796C389.543 318.91 387.332 318.817 385.43 316.914L368.119 299.603L412.939 260.385L424.68 272.126L395.486 315.919Z" fill="white"/>
<path d="M237.845 320.699L201.223 304.714L181.204 284.695C179.863 283.353 178.139 282.633 176.384 282.521V270.722C193.493 259.479 206.013 241.598 210.036 220.291C212.006 220.379 213.995 220.19 215.955 219.727C225.552 217.456 232.517 208.259 232.517 197.859V192.391C232.517 184.793 228.747 177.958 222.906 173.948C224.624 167.142 225.5 160.179 225.5 153.17C225.5 122.098 208.704 94.73 183.387 79.016C183.117 53.083 160.982 32.063 133.799 32.063C106.616 32.063 84.4812 53.083 84.2112 79.016C58.8952 94.73 42.0992 122.099 42.0992 153.17C42.0992 160.158 42.9692 167.101 44.6772 173.888C38.8392 177.878 35.0822 184.745 35.0822 192.473V197.859C35.0822 208.259 42.0472 217.456 51.6442 219.727C53.6042 220.191 55.5922 220.379 57.5632 220.291C61.5862 241.598 74.1072 259.479 91.2162 270.722V282.521C89.4612 282.633 87.7372 283.353 86.3962 284.695L66.3772 304.714L29.7562 320.699C11.1232 328.833 -0.816843 347.945 0.0441568 368.258L4.47316 472.751C4.64416 476.781 7.96516 479.934 11.9612 479.934C12.0682 479.934 12.1762 479.932 12.2842 479.927C16.4232 479.752 19.6352 476.255 19.4602 472.116L15.0302 367.622C14.7452 360.889 16.4952 354.356 19.7852 348.733L39.4702 372.355C45.6912 379.82 49.1162 389.282 49.1162 398.998V472.434C49.1162 476.576 52.4742 479.934 56.6162 479.934C60.7582 479.934 64.1162 476.576 64.1162 472.434V398.998C64.1162 385.78 59.4552 372.908 50.9932 362.753L30.0662 337.64C31.8452 336.414 33.7362 335.328 35.7572 334.446L67.6732 320.514L90.2272 357.123C92.4542 360.738 96.1362 363.189 100.33 363.849C101.084 363.968 101.84 364.026 102.593 364.026C106.022 364.026 109.362 362.811 112.01 360.551L126.302 348.356V472.433C126.302 476.575 129.66 479.933 133.802 479.933C137.944 479.933 141.302 476.575 141.302 472.433V348.358L155.593 360.553C158.241 362.813 161.581 364.028 165.01 364.028C165.762 364.028 166.519 363.969 167.273 363.851C171.467 363.191 175.149 360.74 177.376 357.125L199.93 320.515L231.846 334.447C233.866 335.329 235.758 336.415 237.537 337.641L216.61 362.754C208.148 372.908 203.487 385.781 203.487 398.999V472.435C203.487 476.577 206.845 479.935 210.987 479.935C215.129 479.935 218.487 476.577 218.487 472.435V398.999C218.487 389.283 221.913 379.821 228.133 372.356L247.818 348.734C251.108 354.357 252.858 360.89 252.573 367.623L248.144 472.117C247.969 476.255 251.181 479.752 255.32 479.928C255.428 479.933 255.535 479.935 255.643 479.935C259.639 479.935 262.96 476.783 263.131 472.752L267.56 368.259C268.42 347.946 256.479 328.833 237.845 320.699ZM133.801 47.063C149.757 47.063 163.219 57.242 167.2 71.034C156.846 67.126 145.58 64.977 133.801 64.977C122.022 64.977 110.756 67.126 100.402 71.034C104.383 57.242 117.844 47.063 133.801 47.063ZM72.2462 217.2C70.9242 209.997 64.2452 204.765 57.0592 205.297C56.4222 205.342 55.7642 205.288 55.1002 205.13C52.2402 204.453 50.0832 201.327 50.0832 197.859V192.473C50.0832 188.994 52.4082 185.86 55.3752 185.339C57.8792 184.899 60.2762 185.819 61.7922 187.796C63.1692 189.592 65.0062 190.876 67.1052 191.51C70.1762 192.438 73.5652 191.893 76.1672 190.054C80.7862 186.794 84.8702 182.82 88.3062 178.244C90.7932 174.932 90.1242 170.23 86.8122 167.744C83.4992 165.257 78.7982 165.926 76.3112 169.238C74.6102 171.503 72.6952 173.562 70.5892 175.391C67.3802 172.647 63.4452 170.929 59.2712 170.408C57.8342 164.759 57.0992 158.982 57.0992 153.171C57.0992 112.813 91.5071 79.978 133.801 79.978C176.094 79.978 210.502 112.812 210.502 153.171C210.502 158.971 209.771 164.736 208.339 170.375C206.365 170.532 204.359 170.855 202.502 171.337L196.864 166.701C194.031 164.371 190.465 163.205 186.856 163.42C175.832 164.071 119.374 165.562 90.4082 130.896C87.7522 127.718 83.0232 127.294 79.8442 129.95C76.6652 132.606 76.2422 137.336 78.8982 140.514C93.1842 157.611 114.137 169.172 141.174 174.876C161.875 179.243 180.277 178.819 187.487 178.408L196.283 185.641C198.704 187.632 202.099 187.913 204.81 186.335C206.082 185.642 210.342 184.98 212.201 185.351C215.234 185.954 217.52 188.98 217.52 192.391V197.859C217.52 201.328 215.363 204.454 212.503 205.13C211.84 205.287 211.181 205.344 210.544 205.296C203.362 204.774 196.679 209.997 195.356 217.199C189.9 246.904 164.013 268.464 133.802 268.464C103.59 268.464 77.7022 246.904 72.2462 217.2ZM102.702 348.776L80.1442 312.16L91.7002 300.604L122.758 331.662L102.702 348.776ZM133.801 321.491L106.217 293.907V278.391C114.828 281.669 124.133 283.464 133.801 283.464C143.469 283.464 152.774 281.669 161.385 278.392V293.907L133.801 321.491ZM164.9 348.776L144.844 331.662L175.902 300.604L187.458 312.16L164.9 348.776Z" fill="white"/>
<path d="M105.734 394.766H84.6841C80.5421 394.766 77.1841 398.124 77.1841 402.266C77.1841 406.408 80.5421 409.766 84.6841 409.766H105.734C109.876 409.766 113.234 406.408 113.234 402.266C113.234 398.124 109.876 394.766 105.734 394.766Z" fill="white"/>
</g>
<defs>
<clipPath id="clip0">
<rect width="511.998" height="511.998" fill="white"/>
</clipPath>
</defs>
</svg>
