<svg width="511" height="511" viewBox="0 0 511 511" fill="none" xmlns="http://www.w3.org/2000/svg">
<g clip-path="url(#clip0)">
<path d="M58.8459 187.18C60.304 188.638 62.2182 189.371 64.1325 189.371C66.0467 189.371 67.9609 188.642 69.4229 187.18C72.343 184.26 72.343 179.523 69.4229 176.603L51.2631 158.444L69.4229 140.288C72.343 137.364 72.343 132.631 69.4229 129.711C66.5028 126.79 61.766 126.79 58.8459 129.711L35.3995 153.157C33.996 154.56 33.2085 156.463 33.2085 158.444C33.2085 160.428 33.996 162.33 35.3995 163.734L58.8459 187.18Z" fill="#505050"/>
<path d="M133.06 158.444L114.901 176.603C111.98 179.523 111.98 184.26 114.904 187.18C116.362 188.638 118.277 189.371 120.191 189.371C122.105 189.371 124.019 188.638 125.478 187.18L148.928 163.73C151.848 160.81 151.848 156.073 148.928 153.157L125.478 129.707C122.557 126.787 117.824 126.787 114.904 129.707C111.98 132.631 111.98 137.364 114.904 140.284L133.06 158.444Z" fill="#505050"/>
<path d="M81.0137 188.853C81.9104 189.203 82.8382 189.371 83.7466 189.371C86.733 189.371 89.5517 187.57 90.7096 184.626L109.131 137.73C110.643 133.886 108.749 129.547 104.905 128.034C101.064 126.525 96.7213 128.416 95.2125 132.26L76.7876 179.157C75.2788 183.001 77.1696 187.344 81.0137 188.853Z" fill="#505050"/>
<path d="M44.92 233.247H95.302C99.4307 233.247 102.78 229.898 102.78 225.765C102.78 221.637 99.4307 218.288 95.302 218.288H44.92C40.7874 218.288 37.4424 221.637 37.4424 225.765C37.4424 229.898 40.7874 233.247 44.92 233.247Z" fill="#505050"/>
<path d="M211.341 218.288H122.764C118.636 218.288 115.287 221.637 115.287 225.765C115.287 229.898 118.636 233.247 122.764 233.247H211.341C215.474 233.247 218.823 229.898 218.823 225.765C218.823 221.637 215.474 218.288 211.341 218.288Z" fill="#505050"/>
<path d="M44.92 264.791H66.382C70.5106 264.791 73.8595 261.442 73.8595 257.309C73.8595 253.18 70.5106 249.832 66.382 249.832H44.92C40.7874 249.832 37.4424 253.18 37.4424 257.309C37.4424 261.442 40.7874 264.791 44.92 264.791Z" fill="#505050"/>
<path d="M183.981 249.832C179.848 249.832 176.503 253.18 176.503 257.309C176.503 261.442 179.848 264.791 183.981 264.791H197.049C201.181 264.791 204.53 261.442 204.53 257.309C204.53 253.18 201.181 249.832 197.049 249.832H183.981Z" fill="#505050"/>
<path d="M164.296 257.309C164.296 253.18 160.947 249.832 156.819 249.832H92.6238C88.4913 249.832 85.1462 253.18 85.1462 257.309C85.1462 261.442 88.4913 264.791 92.6238 264.791H156.819C160.947 264.791 164.296 261.442 164.296 257.309Z" fill="#505050"/>
<path d="M213.287 257.309C213.287 261.442 216.636 264.791 220.764 264.791H245.244C249.376 264.791 252.725 261.442 252.725 257.309C252.725 253.18 249.376 249.832 245.244 249.832H220.764C216.636 249.832 213.287 253.18 213.287 257.309Z" fill="#505050"/>
<path d="M172.557 164.443H198.378C202.511 164.443 205.86 161.095 205.86 156.962C205.86 152.833 202.511 149.484 198.378 149.484H172.557C168.425 149.484 165.076 152.833 165.076 156.962C165.076 161.095 168.425 164.443 172.557 164.443Z" fill="#505050"/>
<path d="M227.298 164.443H384.846C388.979 164.443 392.324 161.095 392.324 156.962C392.324 152.833 388.979 149.484 384.846 149.484H227.298C223.166 149.484 219.817 152.833 219.817 156.962C219.817 161.095 223.166 164.443 227.298 164.443V164.443Z" fill="#505050"/>
<path d="M360.916 182.389H297.096C292.967 182.389 289.618 185.738 289.618 189.87C289.618 193.999 292.967 197.348 297.096 197.348H360.916C365.045 197.348 368.394 193.999 368.394 189.87C368.394 185.738 365.045 182.389 360.916 182.389Z" fill="#505050"/>
<path d="M273.166 182.389H251.228C247.096 182.389 243.75 185.738 243.75 189.87C243.75 193.999 247.096 197.348 251.228 197.348H273.166C277.298 197.348 280.643 193.999 280.643 189.87C280.643 185.738 277.298 182.389 273.166 182.389Z" fill="#505050"/>
<path d="M172.557 197.348H226.3C230.429 197.348 233.778 193.999 233.778 189.87C233.778 185.738 230.429 182.389 226.3 182.389H172.557C168.425 182.389 165.076 185.738 165.076 189.87C165.076 193.999 168.425 197.348 172.557 197.348Z" fill="#505050"/>
<path d="M156.912 281.11H106.534C102.402 281.11 99.0527 284.459 99.0527 288.588C99.0527 292.717 102.402 296.066 106.534 296.066H156.912C161.041 296.066 164.39 292.717 164.39 288.588C164.39 284.459 161.041 281.11 156.912 281.11Z" fill="#505050"/>
<path d="M83.6256 281.11H44.92C40.7874 281.11 37.4424 284.459 37.4424 288.588C37.4424 292.717 40.7874 296.066 44.92 296.066H83.6256C87.7582 296.066 91.1032 292.717 91.1032 288.588C91.1032 284.459 87.7582 281.11 83.6256 281.11Z" fill="#505050"/>
<path d="M248.238 281.11H182.425C178.292 281.11 174.947 284.459 174.947 288.588C174.947 292.717 178.292 296.066 182.425 296.066H248.238C252.366 296.066 255.715 292.717 255.715 288.588C255.715 284.459 252.366 281.11 248.238 281.11V281.11Z" fill="#505050"/>
<path d="M337.24 242.693H301.252C297.123 242.693 293.774 246.042 293.774 250.17C293.774 254.303 297.123 257.652 301.252 257.652H337.24C341.372 257.652 344.717 254.303 344.717 250.17C344.717 246.042 341.372 242.693 337.24 242.693V242.693Z" fill="#505050"/>
<path d="M399.688 257.652H450.491C454.624 257.652 457.973 254.303 457.973 250.17C457.973 246.042 454.624 242.693 450.491 242.693H399.688C395.555 242.693 392.21 246.042 392.21 250.17C392.21 254.303 395.559 257.652 399.688 257.652Z" fill="#505050"/>
<path d="M374.285 242.693H362.643C358.511 242.693 355.162 246.042 355.162 250.17C355.162 254.303 358.511 257.652 362.643 257.652H374.285C378.417 257.652 381.762 254.303 381.762 250.17C381.762 246.042 378.417 242.693 374.285 242.693Z" fill="#505050"/>
<path d="M301.252 339.149H337.24C341.372 339.149 344.717 335.804 344.717 331.671C344.717 327.543 341.372 324.194 337.24 324.194H301.252C297.123 324.194 293.774 327.543 293.774 331.671C293.774 335.804 297.123 339.149 301.252 339.149V339.149Z" fill="#505050"/>
<path d="M399.688 339.149H450.491C454.624 339.149 457.973 335.804 457.973 331.671C457.973 327.543 454.624 324.194 450.491 324.194H399.688C395.555 324.194 392.21 327.543 392.21 331.671C392.21 335.804 395.559 339.149 399.688 339.149Z" fill="#505050"/>
<path d="M362.643 339.149H374.285C378.417 339.149 381.766 335.804 381.766 331.671C381.766 327.543 378.417 324.194 374.285 324.194H362.643C358.511 324.194 355.166 327.543 355.166 331.671C355.166 335.804 358.511 339.149 362.643 339.149Z" fill="#505050"/>
<path d="M337.24 405.695H301.252C297.123 405.695 293.774 409.044 293.774 413.172C293.774 417.301 297.123 420.65 301.252 420.65H337.24C341.372 420.65 344.717 417.301 344.717 413.172C344.717 409.044 341.372 405.695 337.24 405.695V405.695Z" fill="#505050"/>
<path d="M450.491 405.695H399.688C395.555 405.695 392.21 409.044 392.21 413.172C392.21 417.301 395.555 420.65 399.688 420.65H450.491C454.624 420.65 457.973 417.301 457.973 413.172C457.973 409.044 454.624 405.695 450.491 405.695V405.695Z" fill="#505050"/>
<path d="M374.285 405.695H362.643C358.511 405.695 355.162 409.044 355.162 413.172C355.162 417.301 358.511 420.65 362.643 420.65H374.285C378.417 420.65 381.762 417.301 381.762 413.172C381.762 409.044 378.417 405.695 374.285 405.695Z" fill="#505050"/>
<path d="M478.09 0.99707H32.9162C14.768 0.99707 0 15.7612 0 33.9133V395.773C0 413.921 14.768 428.685 32.9162 428.685H61.0604C65.1891 428.685 68.538 425.34 68.538 421.208C68.538 417.079 65.1891 413.73 61.0604 413.73H32.9162C23.0136 413.73 14.9591 405.675 14.9591 395.773V367.403H287.423V380.291H281.493C273.38 380.291 266.784 386.888 266.784 395.001V413.73H106.53C102.402 413.73 99.0526 417.079 99.0526 421.208C99.0526 425.34 102.402 428.685 106.53 428.685H178.437V455.508H155.856C140.791 455.508 128.538 467.765 128.538 482.826V498.982C128.538 505.855 134.129 511.445 141.002 511.445H369.431C376.304 511.445 381.895 505.855 381.895 498.982V482.826C381.895 467.765 369.641 455.508 354.577 455.508H331.996V446.054H470.253C478.363 446.054 484.959 439.457 484.959 431.344V427.824C499.536 424.44 510.433 411.36 510.433 395.773L510.998 33.9094C511.002 15.7612 496.238 0.99707 478.09 0.99707V0.99707ZM281.743 349.597V313.75H470.004V349.597H281.743ZM302.378 298.79V283.056H449.365V298.79H302.378ZM449.365 364.553V380.291H302.378V364.553H449.365ZM193.392 428.685H266.784V431.348C266.784 439.457 273.38 446.054 281.493 446.054H317.041V455.508H193.392V428.685ZM354.581 470.467C361.396 470.467 366.94 476.011 366.94 482.826V496.49H143.493V482.826C143.493 476.011 149.041 470.467 155.856 470.467H354.581ZM470.004 431.095H281.743V395.251H470.004V431.095ZM495.478 395.773C495.478 403.017 491.158 409.258 484.963 412.093V394.997C484.963 386.888 478.363 380.291 470.253 380.291H464.324V367.403H495.478V395.773ZM495.478 352.447H484.717C484.869 351.601 484.963 313.5 484.963 313.5C484.963 305.387 478.363 298.79 470.253 298.79H464.324V283.056H470.253C478.363 283.056 484.963 276.455 484.963 268.346V231.999C484.963 223.89 478.363 217.289 470.253 217.289H428.012C423.879 217.289 420.534 220.638 420.534 224.771C420.534 228.9 423.879 232.249 428.012 232.249H470.004V268.097H281.743V232.249H381.478C385.61 232.249 388.955 228.9 388.955 224.771C388.955 220.638 385.61 217.289 381.478 217.289H281.493C273.38 217.289 266.784 223.89 266.784 231.999V268.346C266.784 276.455 273.38 283.056 281.493 283.056H287.423V298.79H281.493C273.38 298.79 266.784 305.391 266.784 313.5C266.784 313.5 266.877 351.601 267.029 352.447H14.9591V102.728H495.478V352.447ZM495.478 87.769H15.5088V33.9094C15.5088 24.0107 23.5634 15.9561 33.4659 15.9561H477.52C487.423 15.9561 495.478 24.0107 495.478 33.9133V87.769Z" fill="#505050"/>
<path d="M55.1539 29.7026C43.0526 29.7026 33.2085 39.5467 33.2085 51.6481C33.2085 63.7494 43.0526 73.5974 55.1539 73.5974C67.2553 73.5974 77.1032 63.7494 77.1032 51.6481C77.1032 39.5467 67.2553 29.7026 55.1539 29.7026ZM55.1539 58.6383C51.3021 58.6383 48.1637 55.5038 48.1637 51.6481C48.1637 47.7962 51.3021 44.6578 55.1539 44.6578C59.0097 44.6578 62.1442 47.7962 62.1442 51.6481C62.1442 55.5038 59.0097 58.6383 55.1539 58.6383Z" fill="#505050"/>
<path d="M111.033 29.7026C98.9317 29.7026 89.0837 39.5467 89.0837 51.6481C89.0837 63.7494 98.9317 73.5974 111.033 73.5974C123.134 73.5974 132.978 63.7494 132.978 51.6481C132.978 39.5467 123.131 29.7026 111.033 29.7026ZM111.033 58.6383C107.177 58.6383 104.043 55.5038 104.043 51.6481C104.043 47.7962 107.177 44.6578 111.033 44.6578C114.885 44.6578 118.023 47.7962 118.023 51.6481C118.023 55.5038 114.885 58.6383 111.033 58.6383Z" fill="#505050"/>
<path d="M166.908 29.7026C154.807 29.7026 144.963 39.5467 144.963 51.6481C144.963 63.7494 154.807 73.5974 166.908 73.5974C179.01 73.5974 188.858 63.7494 188.858 51.6481C188.858 39.5467 179.01 29.7026 166.908 29.7026ZM166.908 58.6383C163.056 58.6383 159.918 55.5038 159.918 51.6481C159.918 47.7962 163.056 44.6578 166.908 44.6578C170.764 44.6578 173.899 47.7962 173.899 51.6481C173.899 55.5038 170.764 58.6383 166.908 58.6383Z" fill="#505050"/>
</g>
<defs>
<clipPath id="clip0">
<rect width="511" height="511" fill="white"/>
</clipPath>
</defs>
</svg>
