<svg width="512" height="512" viewBox="0 0 512 512" fill="none" xmlns="http://www.w3.org/2000/svg">
<g clip-path="url(#clip0)">
<path d="M212.703 137.23C234.982 137.23 253.108 119.105 253.108 96.8264C253.108 74.5474 234.982 56.4214 212.703 56.4214C190.424 56.4214 172.299 74.5474 172.299 96.8264C172.299 119.105 190.424 137.23 212.703 137.23ZM212.703 71.4214C226.712 71.4214 238.108 82.8174 238.108 96.8264C238.108 110.834 226.712 122.23 212.703 122.23C198.695 122.23 187.299 110.834 187.299 96.8264C187.299 82.8184 198.695 71.4214 212.703 71.4214Z" fill="white"/>
<path d="M197.839 437.002C223.335 437.002 244.078 416.259 244.078 390.763C244.078 365.267 223.335 344.524 197.839 344.524C172.343 344.524 151.6 365.267 151.6 390.763C151.6 416.259 172.343 437.002 197.839 437.002ZM197.839 359.524C215.065 359.524 229.078 373.538 229.078 390.763C229.078 407.988 215.064 422.002 197.839 422.002C180.614 422.002 166.6 407.988 166.6 390.763C166.6 373.538 180.613 359.524 197.839 359.524Z" fill="white"/>
<path d="M131.617 131.632C104.586 131.632 82.5955 153.623 82.5955 180.654C82.5955 207.685 104.586 229.676 131.617 229.676C158.648 229.676 180.639 207.685 180.639 180.654C180.639 153.623 158.648 131.632 131.617 131.632ZM131.617 214.677C112.857 214.677 97.5955 199.415 97.5955 180.655C97.5955 161.895 112.858 146.633 131.617 146.633C150.376 146.633 165.639 161.895 165.639 180.655C165.639 199.415 150.377 214.677 131.617 214.677Z" fill="white"/>
<path d="M117.577 348.723C144.608 348.723 166.599 326.732 166.599 299.701C166.599 272.67 144.608 250.679 117.577 250.679C90.5464 250.679 68.5554 272.67 68.5554 299.701C68.5554 326.732 90.5464 348.723 117.577 348.723ZM117.577 265.678C136.337 265.678 151.599 280.94 151.599 299.7C151.599 318.46 136.336 333.722 117.577 333.722C98.8184 333.722 83.5554 318.46 83.5554 299.7C83.5554 280.94 98.8174 265.678 117.577 265.678Z" fill="white"/>
<path d="M166.439 490.45C170.508 491.199 174.419 488.494 175.164 484.419C175.909 480.344 173.208 476.438 169.133 475.694C140.386 470.445 114.67 456.184 94.7653 434.452C36.7868 371.154 10.973 302.882 18.0399 231.533C33.9868 70.5113 203.789 -9.63613 360.386 21.6846C381.542 25.9156 389.782 43.1595 390.407 56.6394C391.026 69.9453 384.511 87.6441 364.113 93.7381C337.758 101.611 316.921 113.102 302.179 127.891C268.391 161.788 265.464 218.98 297.727 257.505C313.658 276.528 323.849 299.595 327.271 324.331C310.287 362.934 292.919 406.65 279.478 447.112C257.883 464.95 230.56 475.759 202.296 477.605C198.163 477.875 195.031 481.444 195.301 485.578C195.561 489.545 198.859 492.59 202.778 492.59C202.942 492.59 203.107 492.585 203.274 492.573C227.611 490.984 251.328 483.399 271.948 470.829C267.586 486.025 274.707 501.944 289.029 508.826C304.323 516.176 322.838 510.352 331.183 495.585C345.625 470.032 361.274 439.018 376.435 405.897C378.16 402.131 376.503 397.68 372.738 395.956C368.97 394.231 364.521 395.889 362.797 399.654C347.81 432.396 332.362 463.016 318.126 488.205C313.649 496.126 303.724 499.243 295.526 495.307C287.769 491.579 283.946 482.915 286.436 474.706C305.797 410.841 338.085 333.101 367.664 272.99L407.976 290.246C398.577 315.859 387.87 342.529 376.945 367.816C375.304 371.619 377.057 376.032 380.86 377.673C384.669 379.316 389.077 377.561 390.718 373.758C411.296 326.004 434.263 266.358 447.666 216.178C452.43 214.467 455.872 211.021 457.697 206.757L464.188 191.593C465.579 188.344 465.886 184.901 465.279 181.663C477.763 173.694 495.237 159.48 504.292 138.326C515.479 112.196 508.045 67.9273 502.618 43.8655C501.579 39.2555 498.363 35.3915 494.018 33.5315C489.672 31.6716 484.658 32.0105 480.604 34.4415C459.448 47.1264 422.286 72.3062 411.101 98.434C402.049 119.579 403.822 142.028 406.671 156.562C403.833 158.403 401.603 161.04 400.242 164.22L393.751 179.383C391.911 183.68 391.822 188.534 393.859 193.144C373.734 226.123 353.754 266.149 337.637 301.266C331.976 281.725 322.367 263.566 309.228 247.876C296.647 232.853 290.268 215.245 290.268 195.54C290.268 153.017 316.558 123.602 368.407 108.112C392.02 101.058 406.537 80.5812 405.392 55.9454C404.445 35.5695 391.071 12.5267 363.328 6.97774C198.247 -26.04 19.9829 59.7513 3.11203 230.055C-4.39291 305.828 22.7219 378.007 83.7044 444.584C105.837 468.748 134.446 484.609 166.439 490.45V490.45ZM405.363 203.093C415.192 207.3 422.696 210.513 432.525 214.72C427.622 232.753 420.98 253.709 413.067 276.108L374.377 259.546C385.125 238.355 395.702 219.084 405.363 203.093V203.093ZM450.399 185.689L443.908 200.853C443.383 202.077 442.012 202.465 440.983 202.024L408.71 188.209C407.664 187.761 407.021 186.495 407.539 185.285L414.03 170.12C414.536 168.941 415.874 168.485 416.957 168.95L449.228 182.764C450.268 183.21 450.908 184.5 450.399 185.689ZM424.889 104.336C428.173 96.664 440.902 75.7822 488.051 47.4634C500.112 101.13 493.785 124.749 490.501 132.422C482.757 150.514 467.179 162.797 456.357 169.56C455.956 169.349 455.545 169.153 455.128 168.975L422.857 155.161H422.856C422.439 154.983 422.015 154.821 421.585 154.677C419.011 142.176 417.146 122.426 424.889 104.336V104.336Z" fill="white"/>
</g>
<defs>
<clipPath id="clip0">
<rect width="512" height="512" fill="white"/>
</clipPath>
</defs>
</svg>
