<svg width="480" height="480" viewBox="0 0 480 480" fill="none" xmlns="http://www.w3.org/2000/svg">
<path d="M296 280H287.2C283.89 280.006 280.929 277.941 279.792 274.832C278.816 272.272 277.768 269.768 276.64 267.288C275.238 264.272 275.878 260.701 278.24 258.36L284.512 252.08C293.823 242.687 293.806 227.539 284.472 218.168L261.864 195.56C252.481 186.232 237.327 186.232 227.944 195.56L221.672 201.824C219.326 204.177 215.761 204.816 212.744 203.424C210.264 202.296 207.76 201.248 205.192 200.224C202.067 199.095 199.988 196.123 200 192.8V184C200 170.745 189.255 160 176 160H144C130.745 160 120 170.745 120 184V192.8C120.006 196.11 117.941 199.071 114.832 200.208C112.272 201.184 109.768 202.232 107.288 203.36C104.271 204.755 100.705 204.116 98.36 201.76L92.08 195.488C82.698 186.166 67.55 186.166 58.168 195.488L35.56 218.168C26.232 227.551 26.232 242.705 35.56 252.088L41.824 258.36C44.186 260.701 44.826 264.272 43.424 267.288C42.296 269.768 41.248 272.272 40.264 274.84C39.119 277.967 36.13 280.034 32.8 280H24C10.745 280 0 290.745 0 304V336C0 349.255 10.745 360 24 360H32.8C36.11 359.994 39.071 362.059 40.208 365.168C41.184 367.728 42.232 370.232 43.36 372.712C44.762 375.728 44.122 379.299 41.76 381.64L35.488 387.92C26.166 397.302 26.166 412.45 35.488 421.832L58.096 444.44C67.479 453.768 82.633 453.768 92.016 444.44L98.288 438.176C100.634 435.823 104.199 435.184 107.216 436.576C109.696 437.704 112.2 438.752 114.768 439.776C117.909 440.892 120.006 443.867 120 447.2V456C120 469.255 130.745 480 144 480H176C189.255 480 200 469.255 200 456V447.2C199.994 443.89 202.059 440.929 205.168 439.792C207.728 438.816 210.232 437.768 212.712 436.64C215.729 435.245 219.295 435.884 221.64 438.24L227.92 444.512C237.315 453.819 252.459 453.801 261.832 444.472L284.44 421.864C293.768 412.481 293.768 397.327 284.44 387.944L278.176 381.672C275.814 379.331 275.174 375.76 276.576 372.744C277.704 370.264 278.752 367.76 279.776 365.192C280.905 362.067 283.877 359.988 287.2 360H296C309.255 360 320 349.255 320 336V304C320 290.745 309.255 280 296 280ZM304 336C304 340.418 300.418 344 296 344H287.2C277.255 344.037 268.355 350.184 264.8 359.472C263.952 361.712 263.035 363.917 262.048 366.088C257.935 375.168 259.843 385.844 266.848 392.936L273.104 399.2C276.23 402.322 276.233 407.388 273.11 410.514C273.108 410.516 273.106 410.518 273.104 410.52L250.496 433.128C247.372 436.251 242.308 436.251 239.184 433.128L232.912 426.864C225.823 419.853 215.143 417.944 206.064 422.064C203.896 423.048 201.688 423.968 199.464 424.816C190.183 428.37 184.04 437.262 184 447.2V456C184 460.418 180.418 464 176 464H144C139.582 464 136 460.418 136 456V447.2C135.963 437.255 129.816 428.355 120.528 424.8C118.288 423.952 116.083 423.035 113.912 422.048C104.832 417.937 94.157 419.846 87.064 426.848L80.8 433.104C77.678 436.23 72.612 436.233 69.486 433.11C69.484 433.108 69.482 433.106 69.48 433.104L46.872 410.52C43.749 407.396 43.749 402.332 46.872 399.208L53.136 392.936C60.141 385.844 62.049 375.168 57.936 366.088C56.952 363.92 56.032 361.712 55.184 359.488C51.638 350.197 42.744 344.044 32.8 344H24C19.582 344 16 340.418 16 336V304C16 299.582 19.582 296 24 296H32.8C42.745 295.963 51.645 289.816 55.2 280.528C56.048 278.288 56.965 276.083 57.952 273.912C62.065 264.832 60.156 254.156 53.152 247.064L46.864 240.8C43.738 237.678 43.735 232.612 46.858 229.486C46.86 229.484 46.862 229.482 46.864 229.48L69.472 206.872C72.596 203.749 77.66 203.749 80.784 206.872L87.056 213.136C94.145 220.147 104.825 222.056 113.904 217.936C116.072 216.952 118.28 216.032 120.504 215.184C129.798 211.641 135.955 202.746 136 192.8V184C136 179.582 139.582 176 144 176H176C180.418 176 184 179.582 184 184V192.8C184.037 202.745 190.184 211.645 199.472 215.2C201.712 216.048 203.917 216.965 206.088 217.952C215.167 222.072 225.847 220.163 232.936 213.152L239.2 206.896C242.336 203.794 247.384 203.794 250.52 206.896L273.128 229.504C276.251 232.628 276.251 237.692 273.128 240.816L266.864 247.088C259.86 254.18 257.951 264.856 262.064 273.936C263.048 276.104 263.968 278.312 264.816 280.536C268.37 289.817 277.262 295.96 287.2 296H296C300.418 296 304 299.582 304 304V336V336Z" fill="#505050"/>
<path d="M231.84 316.8C231.76 314.88 231.624 312.968 231.392 311.064C231.136 309.016 230.832 306.984 230.408 304.992C230.128 303.688 229.76 302.4 229.408 301.104C228.96 299.456 228.456 297.832 227.896 296.232C227.504 295.12 227.096 294.016 226.68 292.92C225.65 290.358 224.472 287.857 223.152 285.432C223.048 285.248 222.984 285.048 222.88 284.864C220.799 281.16 218.389 277.649 215.68 274.376C215.448 274.088 215.184 273.816 214.944 273.536C213.84 272.232 212.704 270.968 211.512 269.76C210.888 269.112 210.232 268.504 209.576 267.88C208.776 267.136 207.976 266.4 207.176 265.696C206.205 264.853 205.216 264.037 204.208 263.248L202.896 262.272C190.517 253 175.466 247.992 160 248C159.2 248 158.4 248.12 157.6 248.152C155.896 248.2 154.184 248.296 152.464 248.472C151.56 248.568 150.648 248.672 149.744 248.8C147.136 249.143 144.548 249.627 141.992 250.248C103.471 260.202 80.313 299.5 90.267 338.021C96.827 363.405 116.659 383.221 142.048 389.76C142.176 389.76 142.312 389.8 142.448 389.832C145.211 390.521 148.01 391.056 150.832 391.432C152.696 391.664 154.56 391.712 156.432 391.8C157.68 391.864 158.832 392.048 160.136 392.048C162.416 392.048 164.784 391.896 167.2 391.656C167.456 391.656 167.712 391.584 168 391.552C169.944 391.336 171.912 391.048 173.92 390.648C174.72 390.496 175.464 390.296 176.232 390.12C177.64 389.792 179.04 389.448 180.48 389.024C181.6 388.688 182.688 388.296 183.784 387.912C184.88 387.528 186.016 387.112 187.152 386.68C188.288 386.248 189.24 385.752 190.272 385.272C191.616 384.656 192.952 384.048 194.272 383.328H194.32C201.786 379.331 208.682 374.351 214.824 368.52C216.483 366.972 217.926 365.206 219.112 363.272C225.356 353.262 229.458 342.067 231.16 330.392C231.384 328.848 231.584 327.304 231.704 325.728C231.816 324.28 231.896 322.84 231.928 321.4C231.928 320.944 231.992 320.512 231.992 320.056C232 318.928 231.888 317.888 231.84 316.8ZM215.896 322.04C215.896 322.704 215.84 323.368 215.8 324.024C215.656 325.96 215.408 327.896 215.08 329.84C212.09 346.473 201.763 360.873 186.968 369.04C185.976 369.56 185 370.048 184.024 370.496L183.36 370.816C178.712 372.926 173.806 374.411 168.768 375.232C168.416 375.288 168.056 375.352 167.696 375.4C166.696 375.544 165.712 375.664 164.736 375.752C163.448 375.864 162.152 375.928 160.832 375.952C160.272 375.952 159.72 375.952 159.16 375.952C157.267 375.93 155.377 375.813 153.496 375.6L152.536 375.488C150.336 375.2 148.154 374.789 146 374.256C116.038 366.587 97.966 336.081 105.634 306.119C110.701 286.321 126.151 270.855 145.944 265.768V265.76C150.54 264.601 155.26 264.009 160 264C162.287 264.013 164.572 264.168 166.84 264.464C167.448 264.536 168.048 264.648 168.648 264.736C170.376 265.008 172.088 265.352 173.776 265.784C174.328 265.928 174.88 266.056 175.424 266.208C179.678 267.436 183.773 269.16 187.624 271.344C188.24 271.704 188.84 272.08 189.448 272.456C190.712 273.256 191.936 274.056 193.144 274.968C193.792 275.44 194.448 275.904 195.072 276.408C196.642 277.662 198.145 278.997 199.576 280.408C200.144 280.984 200.664 281.616 201.216 282.216C202.136 283.216 203.032 284.24 203.888 285.32C204.48 286.064 205.048 286.832 205.608 287.608C206.408 288.76 207.208 289.96 207.928 291.176C208.328 291.84 208.728 292.488 209.136 293.168C210.168 295.067 211.087 297.025 211.888 299.032C212.208 299.832 212.48 300.632 212.768 301.432C213.288 302.904 213.736 304.392 214.128 305.896C214.328 306.696 214.552 307.408 214.72 308.184C215.187 310.346 215.526 312.534 215.736 314.736C215.784 315.32 215.784 315.912 215.824 316.496C215.936 318.336 215.968 320.184 215.896 322.04Z" fill="#505050"/>
<path d="M456 168H430.84C427.485 168.034 424.484 165.921 423.384 162.752C420.903 155.321 417.901 148.073 414.4 141.064C412.914 138.037 413.533 134.398 415.936 132.032L433.776 114.168C443.14 104.797 443.14 89.611 433.776 80.24L399.76 46.28C390.389 36.916 375.203 36.916 365.832 46.28L348 64.104C345.637 66.506 342.003 67.128 338.976 65.648C331.966 62.129 324.716 59.111 317.28 56.616C314.098 55.527 311.97 52.523 312 49.16V24C312 10.745 301.255 0 288 0H240C226.745 0 216 10.745 216 24V49.16C216.034 52.515 213.922 55.516 210.752 56.616C203.32 59.11 196.072 62.126 189.064 65.64C186.037 67.131 182.396 66.512 180.032 64.104L162.168 46.264C152.786 36.927 137.622 36.927 128.24 46.264L94.288 80.216C84.919 89.588 84.919 104.78 94.288 114.152L120.52 140.432C123.693 143.506 128.758 143.426 131.832 140.252C134.831 137.156 134.838 132.24 131.848 129.136L105.6 102.864C102.477 99.74 102.477 94.676 105.6 91.552L139.552 57.6C142.676 54.477 147.74 54.477 150.864 57.6L168.736 75.44C175.967 82.714 187.047 84.532 196.224 79.952C202.561 76.779 209.113 74.055 215.832 71.8C225.53 68.517 232.042 59.399 232 49.16V24C232 19.582 235.582 16 240 16H288C292.418 16 296 19.582 296 24V49.16C295.959 59.397 302.471 68.512 312.168 71.792C318.89 74.048 325.445 76.774 331.784 79.952C340.963 84.508 352.028 82.688 359.264 75.432L377.136 57.6C380.26 54.477 385.324 54.477 388.448 57.6L422.4 91.56C425.518 94.683 425.518 99.741 422.4 102.864L404.56 120.736C397.293 127.971 395.476 139.046 400.048 148.224C403.221 154.561 405.945 161.113 408.2 167.832C411.481 177.532 420.6 184.044 430.84 184H456C460.418 184 464 187.582 464 192V240C464 244.418 460.418 248 456 248H430.84C420.603 247.959 411.488 254.471 408.208 264.168C405.953 270.89 403.226 277.445 400.048 283.784C395.484 292.962 397.305 304.031 404.568 311.264L422.408 329.136C425.531 332.26 425.531 337.324 422.408 340.448L388.44 374.4C385.317 377.518 380.259 377.518 377.136 374.4L350.848 348.168C347.774 344.994 342.709 344.914 339.536 347.988C336.362 351.062 336.282 356.127 339.356 359.3C339.42 359.366 339.486 359.432 339.552 359.496L365.832 385.728C375.203 395.092 390.389 395.092 399.76 385.728L433.712 351.784C443.081 342.412 443.081 327.22 433.712 317.848L415.896 300C413.496 297.636 412.875 294.003 414.352 290.976C417.871 283.966 420.889 276.716 423.384 269.28C424.473 266.098 427.477 263.97 430.84 264H456C469.255 264 480 253.255 480 240V192C480 178.745 469.255 168 456 168Z" fill="#505050"/>
<path d="M337.536 142.464C296.898 101.911 231.102 101.911 190.464 142.464C187.395 145.642 187.483 150.707 190.661 153.776C193.761 156.77 198.676 156.77 201.776 153.776C235.911 119.18 291.628 118.807 326.224 152.942C360.82 187.077 361.193 242.794 327.058 277.39C326.782 277.67 326.504 277.948 326.224 278.224C323.046 281.294 322.958 286.358 326.028 289.536C329.098 292.714 334.162 292.802 337.34 289.732C337.406 289.668 337.472 289.602 337.536 289.536C378.089 248.898 378.089 183.102 337.536 142.464Z" fill="#505050"/>
</svg>
