<svg width="30" height="30" viewBox="0 0 30 30" fill="none" xmlns="http://www.w3.org/2000/svg">
<path fill-rule="evenodd" clip-rule="evenodd" d="M20.0007 14.6667C20.0007 16.0812 19.4387 17.4378 18.4386 18.4379C17.4384 19.4381 16.0818 20 14.6673 20C13.2528 20 11.8963 19.4381 10.8961 18.4379C9.89589 17.4378 9.33398 16.0812 9.33398 14.6667C9.33398 13.2522 9.89589 11.8957 10.8961 10.8955C11.8963 9.89528 13.2528 9.33337 14.6673 9.33337C16.0818 9.33337 17.4384 9.89528 18.4386 10.8955C19.4387 11.8957 20.0007 13.2522 20.0007 14.6667V14.6667ZM18.0007 14.6667C18.0007 15.5508 17.6495 16.3986 17.0243 17.0237C16.3992 17.6489 15.5514 18 14.6673 18C13.7833 18 12.9354 17.6489 12.3103 17.0237C11.6852 16.3986 11.334 15.5508 11.334 14.6667C11.334 13.7827 11.6852 12.9348 12.3103 12.3097C12.9354 11.6846 13.7833 11.3334 14.6673 11.3334C15.5514 11.3334 16.3992 11.6846 17.0243 12.3097C17.6495 12.9348 18.0007 13.7827 18.0007 14.6667Z" fill="#505050"/>
<path fill-rule="evenodd" clip-rule="evenodd" d="M14.6674 3.19362e-06C14.31 3.19362e-06 13.9554 0.0133365 13.6047 0.0373365C12.5874 0.11067 11.8114 0.860003 11.5887 1.776L11.1194 3.70934C11.0927 3.81334 10.9994 3.93867 10.8194 4.00267C10.4897 4.12216 10.1658 4.25697 9.8487 4.40667C9.67536 4.48667 9.5207 4.46534 9.4287 4.40934L7.73003 3.37467C6.9247 2.884 5.84736 2.90267 5.0767 3.57067C4.53937 4.03467 4.0367 4.53867 3.57136 5.07467C2.9047 5.84667 2.8847 6.924 3.37536 7.728L4.41003 9.428C4.46603 9.52 4.4887 9.67467 4.40736 9.848C4.25803 10.164 4.12336 10.488 4.0047 10.8187C3.93803 10.9987 3.81403 11.0933 3.71003 11.1187L1.7767 11.588C0.860698 11.8107 0.111365 12.5867 0.0380317 13.604C-0.0126772 14.3115 -0.0126772 15.0218 0.0380317 15.7293C0.111365 16.7467 0.860698 17.5227 1.7767 17.7453L3.71003 18.2147C3.81403 18.2413 3.93936 18.3347 4.00336 18.5147C4.12336 18.8453 4.25803 19.1693 4.40736 19.4867C4.48736 19.6587 4.46603 19.8133 4.41003 19.9053L3.37536 21.604C2.8847 22.4093 2.90336 23.4867 3.57136 24.2573C4.03536 24.7947 4.53937 25.2973 5.07537 25.7627C5.84737 26.4293 6.9247 26.4493 7.7287 25.9587L9.4287 24.924C9.5207 24.868 9.67536 24.8453 9.8487 24.9267C10.1647 25.076 10.4887 25.2107 10.8194 25.3293C10.9994 25.396 11.094 25.52 11.1194 25.624L11.5887 27.5573C11.8114 28.4733 12.5874 29.2227 13.6047 29.2947C14.3122 29.3455 15.0225 29.3455 15.73 29.2947C16.7474 29.2227 17.5234 28.4733 17.746 27.5573L18.2154 25.624C18.242 25.52 18.3354 25.3947 18.5154 25.3307C18.846 25.2107 19.17 25.076 19.4874 24.9267C19.6594 24.8467 19.814 24.868 19.906 24.924L21.6047 25.9587C22.41 26.4493 23.4874 26.4307 24.258 25.7627C24.7954 25.2987 25.298 24.7947 25.7634 24.2587C26.43 23.4867 26.45 22.4093 25.9594 21.6053L24.9247 19.9053C24.8687 19.8133 24.846 19.6587 24.9274 19.4853C25.0767 19.1693 25.2114 18.8453 25.33 18.5147C25.3967 18.3347 25.5207 18.24 25.6247 18.2147L27.558 17.7453C28.474 17.5227 29.2234 16.7467 29.2954 15.7293C29.3462 15.0218 29.3462 14.3115 29.2954 13.604C29.2234 12.5867 28.474 11.8107 27.558 11.588L25.6247 11.1187C25.5207 11.092 25.3954 10.9987 25.3314 10.8187C25.2118 10.489 25.077 10.1651 24.9274 9.848C24.8474 9.67467 24.8687 9.52 24.9247 9.428L25.9594 7.72934C26.45 6.924 26.4314 5.84667 25.7634 5.076C25.2994 4.53867 24.7954 4.036 24.2594 3.57067C23.4874 2.904 22.41 2.884 21.606 3.37467L19.906 4.40934C19.814 4.46534 19.6594 4.488 19.486 4.40667C19.1689 4.25745 18.845 4.12308 18.5154 4.004C18.3354 3.93734 18.2407 3.81334 18.2154 3.70934L17.746 1.776C17.5234 0.860003 16.7474 0.11067 15.73 0.0373365C15.3764 0.0122232 15.0219 -0.000229215 14.6674 3.19362e-06V3.19362e-06ZM13.7474 2.03334C14.3599 1.98942 14.9748 1.98942 15.5874 2.03334C15.6607 2.03867 15.7674 2.1 15.8034 2.24667L16.2714 4.18C16.4754 5.01734 17.106 5.62 17.8354 5.884C18.1087 5.98267 18.3754 6.09334 18.6354 6.216C18.9987 6.39173 19.3999 6.47469 19.8031 6.45747C20.2063 6.44025 20.599 6.32339 20.946 6.11734L22.646 5.08267C22.7754 5.00267 22.894 5.03467 22.95 5.08267C23.414 5.48534 23.8487 5.92 24.2514 6.384C24.2994 6.44 24.3314 6.55734 24.2514 6.688L23.2167 8.38667C23.0104 8.73385 22.8934 9.12677 22.8762 9.53025C22.859 9.93372 22.9421 10.3352 23.118 10.6987C23.2407 10.9587 23.3514 11.2253 23.4487 11.4987C23.7127 12.228 24.318 12.8587 25.1527 13.0613L27.086 13.532C27.234 13.5667 27.2954 13.6733 27.3007 13.7467C27.3446 14.3592 27.3446 14.9741 27.3007 15.5867C27.2954 15.66 27.234 15.7667 27.0874 15.8027L25.154 16.2707C24.7629 16.3704 24.4026 16.5654 24.1053 16.8383C23.808 17.1112 23.5828 17.4535 23.45 17.8347C23.3515 18.1064 23.2403 18.3734 23.1167 18.6347C22.9412 18.9981 22.8584 19.3994 22.8759 19.8026C22.8933 20.2058 23.0104 20.5984 23.2167 20.9453L24.2514 22.6453C24.3314 22.7747 24.2994 22.8933 24.2514 22.9493C23.8495 23.4139 23.4146 23.8488 22.95 24.2507C22.894 24.2987 22.7767 24.3307 22.646 24.2507L20.946 23.216C20.599 23.0099 20.2063 22.8931 19.8031 22.8759C19.3999 22.8587 18.9987 22.9416 18.6354 23.1173C18.374 23.24 18.1071 23.3503 17.8354 23.448C17.4545 23.581 17.1125 23.8062 16.8398 24.1035C16.5671 24.4009 16.3723 24.7611 16.2727 25.152L15.802 27.0853C15.7674 27.2333 15.6607 27.2947 15.5874 27.3C14.9748 27.3439 14.3599 27.3439 13.7474 27.3C13.674 27.2947 13.5674 27.2333 13.5314 27.0867L13.0634 25.1533C12.9636 24.7623 12.7686 24.402 12.4957 24.1046C12.2228 23.8073 11.8805 23.5821 11.4994 23.4493C11.2276 23.3508 10.9607 23.2396 10.6994 23.116C10.3358 22.9402 9.93425 22.8574 9.53077 22.8748C9.12729 22.8923 8.73444 23.0095 8.38736 23.216L6.6887 24.2507C6.55936 24.3307 6.4407 24.2987 6.3847 24.2507C5.92013 23.8488 5.48522 23.4139 5.08336 22.9493C5.03536 22.8933 5.00336 22.776 5.08336 22.6453L6.11803 20.9453C6.32409 20.5983 6.44095 20.2056 6.45816 19.8024C6.47538 19.3992 6.39242 18.998 6.2167 18.6347C6.09362 18.3733 5.98283 18.1064 5.8847 17.8347C5.75183 17.454 5.52682 17.112 5.22974 16.8394C4.93266 16.5667 4.57273 16.3718 4.18203 16.272L2.2487 15.8013C2.1007 15.7667 2.03937 15.66 2.03403 15.5867C1.99011 14.9741 1.99011 14.3592 2.03403 13.7467C2.03937 13.6733 2.1007 13.5667 2.24736 13.5307L4.1807 13.0627C4.57178 12.9629 4.93208 12.7679 5.22942 12.495C5.52676 12.2221 5.75189 11.8798 5.8847 11.4987C5.98283 11.227 6.09362 10.96 6.2167 10.6987C6.39265 10.3352 6.47574 9.93372 6.45852 9.53025C6.4413 9.12677 6.32432 8.73385 6.11803 8.38667L5.08336 6.688C5.00336 6.55867 5.03536 6.44 5.08336 6.384C5.48603 5.92 5.9207 5.48534 6.3847 5.08267C6.4407 5.03467 6.55803 5.00267 6.6887 5.08267L8.38736 6.11734C8.73455 6.32362 9.12746 6.44061 9.53094 6.45783C9.93442 6.47505 10.3359 6.39196 10.6994 6.216C10.9607 6.09293 11.2277 5.98214 11.4994 5.884C11.8801 5.75114 12.222 5.52613 12.4947 5.22905C12.7673 4.93196 12.9622 4.57203 13.062 4.18134L13.5327 2.248C13.5674 2.1 13.674 2.03867 13.7474 2.03334V2.03334Z" fill="#505050"/>
</svg>
