<svg width="36" height="36" viewBox="0 0 36 36" fill="none" xmlns="http://www.w3.org/2000/svg">
<g clip-path="url(#clip0)">
<path d="M17.5241 10.4243L6.00094 21.1013V32.6248C6.00094 32.9231 6.10629 33.2093 6.29383 33.4203C6.48137 33.6312 6.73572 33.7498 7.00094 33.7498L14.0047 33.7294C14.269 33.7279 14.5221 33.6087 14.7086 33.3979C14.895 33.1871 14.9997 32.9018 14.9997 32.6044V25.8748C14.9997 25.5764 15.105 25.2903 15.2926 25.0793C15.4801 24.8683 15.7345 24.7498 15.9997 24.7498H19.9997C20.2649 24.7498 20.5193 24.8683 20.7068 25.0793C20.8943 25.2903 20.9997 25.5764 20.9997 25.8748V32.5995C20.9993 32.7475 21.0248 32.8942 21.0749 33.0311C21.125 33.168 21.1986 33.2924 21.2915 33.3972C21.3844 33.5021 21.4948 33.5852 21.6163 33.642C21.7378 33.6988 21.8681 33.728 21.9997 33.728L29.0009 33.7498C29.2662 33.7498 29.5205 33.6312 29.708 33.4203C29.8956 33.2093 30.0009 32.9231 30.0009 32.6248V21.0935L18.4803 10.4243C18.3449 10.3015 18.1761 10.2345 18.0022 10.2345C17.8282 10.2345 17.6595 10.3015 17.5241 10.4243V10.4243ZM35.7259 17.6813L30.5009 12.836V3.09705C30.5009 2.87327 30.4219 2.65866 30.2813 2.50042C30.1406 2.34219 29.9499 2.2533 29.7509 2.2533H26.2509C26.052 2.2533 25.8613 2.34219 25.7206 2.50042C25.58 2.65866 25.5009 2.87327 25.5009 3.09705V8.20243L19.9053 3.02322C19.3683 2.52609 18.6945 2.25429 17.9991 2.25429C17.3036 2.25429 16.6298 2.52609 16.0928 3.02322L0.272187 17.6813C0.196241 17.7519 0.133409 17.8386 0.0872787 17.9366C0.0411487 18.0345 0.0126255 18.1417 0.00333885 18.2521C-0.00594778 18.3624 0.00418416 18.4738 0.0331558 18.5797C0.0621274 18.6857 0.109371 18.7841 0.172187 18.8695L1.76594 21.0492C1.82858 21.1349 1.90563 21.2059 1.99269 21.258C2.07974 21.3102 2.17508 21.3425 2.27324 21.3531C2.37141 21.3638 2.47048 21.3526 2.56479 21.3201C2.65909 21.2876 2.74677 21.2345 2.82281 21.1638L17.5241 7.5415C17.6595 7.41868 17.8282 7.3517 18.0022 7.3517C18.1761 7.3517 18.3449 7.41868 18.4803 7.5415L33.1822 21.1638C33.2581 21.2345 33.3456 21.2877 33.4398 21.3202C33.534 21.3528 33.6329 21.3642 33.731 21.3538C33.8291 21.3433 33.9244 21.3113 34.0115 21.2594C34.0986 21.2075 34.1757 21.1368 34.2384 21.0513L35.8322 18.8716C35.8949 18.7858 35.942 18.6868 35.9706 18.5804C35.9992 18.474 36.0089 18.3622 35.999 18.2516C35.9892 18.141 35.9599 18.0337 35.9131 17.9358C35.8662 17.8379 35.8026 17.7514 35.7259 17.6813V17.6813Z" fill="#505050"/>
</g>
<defs>
<clipPath id="clip0">
<rect width="36" height="36" fill="white"/>
</clipPath>
</defs>
</svg>
