<svg width="23" height="32" viewBox="0 0 23 32" fill="none" xmlns="http://www.w3.org/2000/svg">
<path d="M11.0006 0C8.08325 0 5.28536 1.15893 3.22246 3.22183C1.15956 5.28473 0.000634778 8.08262 0.000634778 11C-0.0167955 12.5987 0.324942 14.181 1.00063 15.63C1.33541 16.2467 1.70951 16.8413 2.12063 17.41C2.9217 18.4838 3.59302 19.6486 4.12063 20.88C4.48368 22.1834 4.68189 23.5273 4.71063 24.88H6.71063C6.67992 23.2924 6.44122 21.7156 6.00063 20.19C5.42345 18.7976 4.6779 17.4811 3.78063 16.27C3.41771 15.7765 3.08381 15.2623 2.78063 14.73C2.24335 13.5541 1.9768 12.2726 2.00063 10.98C2.00063 8.58377 2.95253 6.28568 4.64692 4.59129C6.34132 2.8969 8.6394 1.945 11.0356 1.945C13.4319 1.945 15.73 2.8969 17.4243 4.59129C19.1187 6.28568 20.0706 8.58377 20.0706 10.98C20.0725 12.2855 19.7784 13.5744 19.2106 14.75C18.9075 15.2823 18.5736 15.7965 18.2106 16.29C17.3183 17.4954 16.5761 18.8051 16.0006 20.19C15.5583 21.722 15.3196 23.3056 15.2906 24.9H17.2906C17.3194 23.5473 17.5176 22.2034 17.8806 20.9C18.4082 19.6686 19.0796 18.5038 19.8806 17.43C20.2934 16.8485 20.6675 16.2405 21.0006 15.61C21.6763 14.161 22.0181 12.5787 22.0006 10.98C21.9953 8.06608 20.8341 5.27333 18.7717 3.21475C16.7094 1.15617 13.9146 -4.81638e-06 11.0006 0V0Z" fill="#505050"/>
<path d="M11.6305 13.26C11.4805 13.1104 11.2773 13.0264 11.0655 13.0264C10.8537 13.0264 10.6505 13.1104 10.5005 13.26L7.50049 16.26L10.3605 19.39V24.93H12.0005V18.75L9.76049 16.3L11.6505 14.41C11.7263 14.3341 11.7861 14.2437 11.8263 14.1441C11.8665 14.0446 11.8862 13.9381 11.8843 13.8308C11.8825 13.7235 11.859 13.6176 11.8154 13.5196C11.7718 13.4215 11.7089 13.3332 11.6305 13.26V13.26Z" fill="#505050"/>
<path d="M16.8605 26.9H5.11055C4.89837 26.9 4.69489 26.9843 4.54486 27.1343C4.39483 27.2844 4.31055 27.4879 4.31055 27.7C4.31055 27.9122 4.39483 28.1157 4.54486 28.2657C4.69489 28.4157 4.89837 28.5 5.11055 28.5H16.8605C17.0727 28.5 17.2762 28.4157 17.4262 28.2657C17.5763 28.1157 17.6605 27.9122 17.6605 27.7C17.6605 27.4879 17.5763 27.2844 17.4262 27.1343C17.2762 26.9843 17.0727 26.9 16.8605 26.9Z" fill="#505050"/>
<path d="M15.0007 29.9H7.00068C6.78851 29.9 6.58503 29.9843 6.435 30.1343C6.28497 30.2844 6.20068 30.4879 6.20068 30.7C6.20068 30.9122 6.28497 31.1157 6.435 31.2657C6.58503 31.4157 6.78851 31.5 7.00068 31.5H15.0007C15.2129 31.5 15.4163 31.4157 15.5664 31.2657C15.7164 31.1157 15.8007 30.9122 15.8007 30.7C15.8007 30.4879 15.7164 30.2844 15.5664 30.1343C15.4163 29.9843 15.2129 29.9 15.0007 29.9V29.9Z" fill="#505050"/>
<path d="M10.3205 8.64002L7.59046 11.37C7.45257 11.5222 7.37849 11.7216 7.38354 11.9269C7.3886 12.1322 7.47241 12.3277 7.61762 12.4729C7.76282 12.6181 7.95831 12.7019 8.16361 12.7069C8.36891 12.712 8.56828 12.6379 8.72046 12.5L11.4505 9.75002C11.5308 9.67725 11.5955 9.58892 11.6406 9.4904C11.6857 9.39188 11.7104 9.28521 11.7131 9.17687C11.7157 9.06853 11.6964 8.96078 11.6561 8.86015C11.6159 8.75952 11.5556 8.66812 11.479 8.59149C11.4024 8.51486 11.311 8.4546 11.2103 8.41436C11.1097 8.37413 11.002 8.35475 10.8936 8.35742C10.7853 8.36009 10.6786 8.38474 10.5801 8.42988C10.4816 8.47502 10.3932 8.53971 10.3205 8.62002V8.64002Z" fill="#505050"/>
</svg>
