<svg width="481" height="481" viewBox="0 0 481 481" fill="none" xmlns="http://www.w3.org/2000/svg">
<g clip-path="url(#clip0)">
<path d="M240.003 48C244.421 48 248.003 44.418 248.003 40V8C248.003 3.582 244.421 0 240.003 0C235.585 0 232.003 3.582 232.003 8V40C232.003 44.418 235.584 48 240.003 48Z" fill="#505050"/>
<path d="M141.075 36.656L157.075 64.36C159.259 68.201 164.143 69.544 167.984 67.36C171.825 65.176 173.168 60.292 170.984 56.451C170.967 56.42 170.949 56.39 170.931 56.359L154.931 28.655C152.747 24.814 147.863 23.471 144.022 25.655C140.181 27.839 138.838 32.723 141.022 36.564C141.039 36.595 141.057 36.626 141.075 36.656Z" fill="#505050"/>
<path d="M76.567 106.875C76.597 106.893 76.628 106.91 76.659 106.928L104.363 122.928C108.175 125.162 113.076 123.884 115.31 120.072C117.544 116.26 116.266 111.359 112.454 109.125C112.424 109.107 112.393 109.09 112.362 109.072L84.658 93.072C80.846 90.838 75.945 92.116 73.711 95.928C71.477 99.739 72.755 104.641 76.567 106.875Z" fill="#505050"/>
<path d="M96.003 192C96.003 187.582 92.421 184 88.003 184H56.003C51.585 184 48.003 187.582 48.003 192C48.003 196.418 51.585 200 56.003 200H88.003C92.421 200 96.003 196.418 96.003 192Z" fill="#505050"/>
<path d="M104.456 261.018C104.425 261.036 104.394 261.054 104.363 261.072L76.659 277.072C72.818 279.255 71.474 284.139 73.657 287.98C75.84 291.821 80.724 293.165 84.565 290.982C84.596 290.964 84.627 290.946 84.658 290.928L112.362 274.928C116.203 272.745 117.547 267.861 115.364 264.02C113.181 260.179 108.297 258.835 104.456 261.018Z" fill="#505050"/>
<path d="M403.44 277.126C403.409 277.108 403.378 277.09 403.347 277.072L375.643 261.072C371.832 258.837 366.93 260.115 364.695 263.926C362.46 267.737 363.738 272.639 367.549 274.874C367.58 274.892 367.611 274.91 367.642 274.928L395.346 290.928C399.157 293.163 404.059 291.885 406.294 288.074C408.529 284.262 407.251 279.361 403.44 277.126Z" fill="#505050"/>
<path d="M424.003 184H392.003C387.585 184 384.003 187.582 384.003 192C384.003 196.418 387.585 200 392.003 200H424.003C428.421 200 432.003 196.418 432.003 192C432.003 187.582 428.421 184 424.003 184Z" fill="#505050"/>
<path d="M371.651 124C373.055 124 374.435 123.63 375.651 122.928L403.355 106.928C407.196 104.744 408.539 99.86 406.355 96.019C404.171 92.178 399.287 90.835 395.446 93.019C395.415 93.036 395.385 93.054 395.354 93.072L367.65 109.072C363.824 111.281 362.513 116.174 364.722 120C366.152 122.475 368.793 124 371.651 124Z" fill="#505050"/>
<path d="M311.993 67.291C311.996 67.293 311.999 67.295 312.002 67.296C315.829 69.503 320.722 68.19 322.929 64.362C322.929 64.361 322.93 64.36 322.93 64.36L338.93 36.656C341.165 32.845 339.887 27.943 336.076 25.708C332.265 23.473 327.363 24.751 325.128 28.562C325.11 28.593 325.092 28.624 325.074 28.655L309.074 56.359C306.862 60.184 308.169 65.078 311.993 67.291Z" fill="#505050"/>
<path d="M256.003 320C260.421 320 264.003 316.418 264.003 312V224H280.003C297.676 224 312.003 209.673 312.003 192C312.003 174.327 297.676 160 280.003 160C262.33 160 248.003 174.327 248.003 192V208H232.003V192C232.003 174.327 217.676 160 200.003 160C182.33 160 168.003 174.327 168.003 192C168.003 209.673 182.33 224 200.003 224H216.003V312C216.003 316.418 219.585 320 224.003 320C228.421 320 232.003 316.418 232.003 312V224H248.003V312C248.003 316.418 251.584 320 256.003 320ZM264.003 192C264.003 183.163 271.166 176 280.003 176C288.84 176 296.003 183.163 296.003 192C296.003 200.837 288.84 208 280.003 208H264.003V192ZM216.003 208H200.003C191.166 208 184.003 200.837 184.003 192C184.003 183.163 191.166 176 200.003 176C208.84 176 216.003 183.163 216.003 192V208Z" fill="#505050"/>
<path d="M246.219 64.152C175.608 60.76 115.616 115.251 112.224 185.862C110.281 226.294 127.578 265.262 158.867 290.944C164.506 295.361 167.861 302.079 168.003 309.24V328C168.045 338.134 174.448 347.15 184.003 350.528V360C184.024 365.923 186.248 371.627 190.243 376C181.923 385.044 181.923 398.956 190.243 408C181.349 417.75 182.043 432.864 191.793 441.758C196.222 445.798 202.008 448.026 208.003 448C212.309 448.113 215.892 444.713 216.004 440.407C216.048 438.727 215.548 437.077 214.579 435.704C214.326 435.215 214.026 434.751 213.683 434.32C213.025 433.718 212.274 433.226 211.459 432.864C211.227 432.744 210.995 432.648 210.755 432.552C209.945 432.257 209.096 432.087 208.235 432.048C208.155 432.048 208.083 432 208.003 432C203.585 432 200.003 428.418 200.003 424C200.003 419.582 203.585 416 208.003 416H240.003C244.421 416 248.003 412.418 248.003 408C248.003 403.582 244.421 400 240.003 400H208.003C203.585 400 200.003 396.418 200.003 392C200.003 387.582 203.585 384 208.003 384H240.003C244.421 384 248.003 380.418 248.003 376C248.003 371.582 244.421 368 240.003 368H208.003C203.585 368 200.003 364.418 200.003 360V352H240.003C244.421 352 248.003 348.418 248.003 344C248.003 339.582 244.421 336 240.003 336H192.003C187.585 336 184.003 332.418 184.003 328V309.24C183.872 297.278 178.363 286.01 169.003 278.56C121.215 239.286 114.314 168.708 153.588 120.92C176.054 93.584 210.116 78.472 245.459 80.16C304.566 83.676 350.995 132.117 352.003 191.32C352.29 225.372 336.979 257.683 310.443 279.024C301.153 286.676 295.841 298.133 296.003 310.168V328C296.003 332.418 292.421 336 288.003 336H264.003C259.585 336 256.003 339.582 256.003 344C256.003 348.418 259.585 352 264.003 352H280.003V360C280.003 364.418 276.421 368 272.003 368H264.003C259.585 368 256.003 371.582 256.003 376C256.003 380.418 259.585 384 264.003 384H272.003C276.421 384 280.003 387.582 280.003 392C280.003 396.418 276.421 400 272.003 400H264.003C259.585 400 256.003 403.582 256.003 408C256.003 412.418 259.585 416 264.003 416H272.003C276.421 416 280.003 419.582 280.003 424C280.003 428.418 276.421 432 272.003 432H232.003C227.585 432 224.003 435.582 224.003 440C224.003 444.418 227.585 448 232.003 448H262.635C258.218 460.497 244.506 467.047 232.009 462.63C228.183 461.278 224.763 458.977 222.067 455.944C219.129 452.644 214.071 452.35 210.771 455.288C207.471 458.226 207.177 463.284 210.115 466.584C224.746 483.071 249.972 484.576 266.459 469.946C273.269 463.903 277.808 455.714 279.323 446.736C291.852 442.82 298.834 429.489 294.919 416.96C293.879 413.631 292.118 410.572 289.763 408C298.083 398.956 298.083 385.044 289.763 376C293.758 371.627 295.982 365.923 296.003 360V350.528C305.558 347.15 311.961 338.134 312.003 328V310.168C311.896 302.981 315.01 296.122 320.491 291.472C350.835 267.077 368.341 230.133 368.003 191.2C366.847 123.532 313.777 68.169 246.219 64.152Z" fill="#505050"/>
</g>
<defs>
<clipPath id="clip0">
<rect width="480.005" height="480.005" fill="white"/>
</clipPath>
</defs>
</svg>
