<svg width="512" height="512" viewBox="0 0 512 512" fill="none" xmlns="http://www.w3.org/2000/svg">
<path d="M57.192 33.134H66.2591V24.067C66.2591 10.796 77.055 0 90.326 0C103.597 0 114.393 10.796 114.393 24.067V33.134H149.093V24.067C149.092 10.796 159.889 0 173.159 0C186.429 0 197.226 10.796 197.226 24.067V33.134H231.926V24.067C231.926 10.796 242.722 0 255.993 0C269.264 0 280.06 10.796 280.06 24.067V33.134H314.76V24.067C314.759 10.796 325.556 0 338.826 0C352.097 0 362.893 10.796 362.893 24.067V33.134H371.961C394.366 33.134 412.593 51.362 412.593 73.766V257.303L430.939 238.957C440.323 229.573 455.591 229.574 464.975 238.957L488.404 262.386C497.788 271.769 497.788 287.038 488.404 296.421L412.594 372.231V471.367C412.594 493.772 394.366 512 371.962 512H116.826C112.684 512 109.326 508.642 109.326 504.5C109.326 500.358 112.684 497 116.826 497H371.961C386.095 497 397.593 485.501 397.593 471.367V387.231L336.409 448.415C336.231 448.593 336.045 448.761 335.852 448.918C335.721 449.025 335.585 449.12 335.449 449.217C335.385 449.262 335.325 449.313 335.26 449.356C335.088 449.471 334.911 449.573 334.732 449.672C334.698 449.691 334.666 449.713 334.632 449.731C334.443 449.832 334.25 449.92 334.056 450.003C334.027 450.015 334 450.031 333.97 450.043C333.781 450.121 333.589 450.187 333.396 450.249C333.356 450.262 333.318 450.278 333.278 450.29C333.096 450.345 332.912 450.388 332.728 450.428C332.673 450.44 332.62 450.457 332.565 450.468C332.386 450.503 332.206 450.526 332.025 450.548C331.962 450.556 331.901 450.569 331.838 450.575C331.595 450.599 331.35 450.611 331.106 450.611H287.355L277.837 460.129C276.373 461.593 274.453 462.326 272.534 462.326C270.615 462.326 268.695 461.593 267.231 460.129C264.302 457.2 264.302 452.451 267.231 449.522L276.749 440.005V396.256C276.749 396.01 276.761 395.765 276.785 395.52C276.79 395.466 276.802 395.414 276.808 395.36C276.831 395.17 276.856 394.981 276.893 394.793C276.903 394.745 276.917 394.698 276.928 394.65C276.97 394.459 277.015 394.268 277.071 394.08C277.081 394.046 277.095 394.014 277.106 393.98C277.169 393.781 277.238 393.583 277.318 393.388C277.327 393.367 277.338 393.347 277.347 393.326C277.433 393.123 277.526 392.922 277.63 392.726C277.644 392.7 277.66 392.677 277.674 392.651C277.777 392.463 277.885 392.278 278.005 392.098C278.042 392.042 278.086 391.99 278.125 391.935C278.227 391.79 278.329 391.645 278.442 391.506C278.6 391.313 278.767 391.127 278.945 390.949L340.13 329.764H82.0431C77.9011 329.764 74.5431 326.406 74.5431 322.264C74.5431 318.122 77.9011 314.764 82.0431 314.764H347.11C349.313 314.764 351.289 315.72 352.661 317.233L397.594 272.3V130.967H31.5601V182.118C31.5601 186.26 28.2021 189.618 24.0601 189.618C19.9181 189.618 16.5601 186.26 16.5601 182.118V73.766C16.5591 51.361 34.787 33.134 57.192 33.134V33.134ZM291.748 435.612H312.999L291.748 414.361V435.612ZM449.065 314.547L436.242 301.725L318.283 419.684L331.105 432.506L449.065 314.547ZM307.677 409.077L425.636 291.118L412.813 278.296L294.854 396.255L307.677 409.077ZM477.797 272.993L454.368 249.564C450.833 246.029 445.08 246.028 441.545 249.564L423.419 267.69L459.671 303.94L477.796 285.815C481.332 282.28 481.332 276.528 477.797 272.993V272.993ZM90.326 15C85.326 15 81.2591 19.067 81.2591 24.067V57.2C81.2591 62.2 85.326 66.267 90.326 66.267C95.326 66.267 99.3931 62.2 99.3931 57.2V40.644C99.3931 40.641 99.3931 40.638 99.3931 40.634C99.3931 40.63 99.3931 40.628 99.3931 40.624V24.067C99.3921 19.067 95.325 15 90.326 15V15ZM173.159 15C168.159 15 164.092 19.067 164.092 24.067V57.2C164.092 62.2 168.159 66.267 173.159 66.267C178.159 66.267 182.226 62.2 182.226 57.2V40.644C182.226 40.641 182.226 40.638 182.226 40.634C182.226 40.63 182.226 40.628 182.226 40.624V24.067C182.226 19.067 178.159 15 173.159 15V15ZM265.059 24.067C265.059 19.067 260.992 15 255.992 15C250.992 15 246.925 19.067 246.925 24.067V40.624V40.634C246.925 40.634 246.925 40.64 246.925 40.644V57.2C246.925 62.2 250.992 66.267 255.992 66.267C260.991 66.267 265.059 62.2 265.059 57.2V24.067ZM338.826 15C333.827 15 329.759 19.067 329.759 24.067V57.2C329.759 62.2 333.826 66.267 338.826 66.267C343.826 66.267 347.893 62.2 347.893 57.2V24.067C347.893 19.067 343.826 15 338.826 15V15ZM397.593 115.967V73.766C397.593 59.632 386.094 48.134 371.961 48.134H362.893V57.2C362.893 70.471 352.097 81.267 338.826 81.267C325.556 81.267 314.759 70.471 314.759 57.2V48.134H280.059V57.2C280.059 70.471 269.263 81.267 255.992 81.267C242.721 81.267 231.925 70.471 231.925 57.2V48.134H197.225V57.2C197.225 70.471 186.429 81.267 173.158 81.267C159.887 81.267 149.091 70.471 149.091 57.2V48.134H114.391V57.2C114.391 70.471 103.595 81.267 90.3241 81.267C77.0531 81.267 66.257 70.471 66.257 57.2V48.134H57.1901C43.0561 48.134 31.5571 59.633 31.5571 73.766V115.967H397.593Z" fill="#505050"/>
<path d="M24.059 204.619C28.201 204.619 31.559 207.977 31.559 212.119V471.367C31.559 485.501 43.058 497 57.192 497H86.826C90.968 497 94.326 500.358 94.326 504.5C94.326 508.642 90.968 512 86.826 512H57.192C34.787 512 16.559 493.772 16.559 471.367V212.119C16.559 207.977 19.917 204.619 24.059 204.619V204.619Z" fill="#505050"/>
<path d="M347.11 180.667H82.043C77.901 180.667 74.543 177.309 74.543 173.167C74.543 169.025 77.901 165.667 82.043 165.667H347.11C351.252 165.667 354.61 169.025 354.61 173.167C354.61 177.309 351.252 180.667 347.11 180.667Z" fill="#505050"/>
<path d="M347.11 230.367H82.043C77.901 230.367 74.543 227.009 74.543 222.867C74.543 218.725 77.901 215.367 82.043 215.367H347.11C351.252 215.367 354.61 218.725 354.61 222.867C354.61 227.009 351.252 230.367 347.11 230.367Z" fill="#505050"/>
<path d="M347.11 280.067H82.043C77.901 280.067 74.543 276.709 74.543 272.567C74.543 268.425 77.901 265.067 82.043 265.067H347.11C351.252 265.067 354.61 268.425 354.61 272.567C354.61 276.709 351.252 280.067 347.11 280.067Z" fill="#505050"/>
<path d="M74.542 371.967C74.542 367.825 77.9 364.467 82.042 364.467H255.992C260.134 364.467 263.492 367.825 263.492 371.967C263.492 376.109 260.134 379.467 255.992 379.467H82.042C77.9 379.467 74.542 376.109 74.542 371.967Z" fill="#505050"/>
</svg>
