<svg width="33" height="33" viewBox="0 0 33 33" fill="none" xmlns="http://www.w3.org/2000/svg">
<path d="M25.5998 29.8698H2.13332V6.40328H16.2346L18.3679 4.26996H2.13332C1.56753 4.26996 1.02491 4.49472 0.624835 4.89479C0.22476 5.29487 0 5.83749 0 6.40328V29.8698C0 30.4356 0.22476 30.9782 0.624835 31.3783C1.02491 31.7784 1.56753 32.0031 2.13332 32.0031H25.5998C26.1656 32.0031 26.7082 31.7784 27.1083 31.3783C27.5084 30.9782 27.7332 30.4356 27.7332 29.8698V13.8699L25.5998 16.0032V29.8698Z" fill="#505050"/>
<path d="M31.4982 4.0993L27.9035 0.504656C27.744 0.34469 27.5545 0.217772 27.3458 0.131174C27.1372 0.0445757 26.9135 0 26.6876 0C26.4616 0 26.2379 0.0445757 26.0293 0.131174C25.8206 0.217772 25.6311 0.34469 25.4716 0.504656L10.8477 15.2139L9.66366 20.3445C9.61322 20.5932 9.61852 20.85 9.67919 21.0964C9.73985 21.3428 9.85437 21.5727 10.0145 21.7696C10.1746 21.9664 10.3764 22.1254 10.6053 22.2349C10.8342 22.3445 11.0846 22.4019 11.3383 22.4032C11.4695 22.4176 11.6018 22.4176 11.733 22.4032L16.9063 21.2619L31.4982 6.53128C31.6582 6.37176 31.7851 6.18223 31.8717 5.97357C31.9583 5.76491 32.0028 5.54121 32.0028 5.31529C32.0028 5.08937 31.9583 4.86568 31.8717 4.65701C31.7851 4.44835 31.6582 4.25883 31.4982 4.0993V4.0993ZM15.797 19.2885L11.893 20.1525L12.7996 16.2806L23.8076 5.19796L26.8156 8.20594L15.797 19.2885ZM28.0209 7.00062L25.0129 3.99263L26.6662 2.30731L29.6955 5.33663L28.0209 7.00062Z" fill="#505050"/>
</svg>
