<svg width="512" height="512" viewBox="0 0 512 512" fill="none" xmlns="http://www.w3.org/2000/svg">
<path d="M504.5 335.364C500.357 335.364 497 338.721 497 342.864V355C497 361.893 491.393 367.5 484.5 367.5H27.5C20.607 367.5 15 361.893 15 355V55C15 48.107 20.607 42.5 27.5 42.5H416.608C420.751 42.5 424.108 39.143 424.108 35C424.108 30.857 420.751 27.5 416.608 27.5H27.5C12.336 27.5 0 39.836 0 55V355C0 370.164 12.336 382.5 27.5 382.5H170.5V435.5C153.131 435.5 139 449.631 139 467V477C139 481.143 142.357 484.5 146.5 484.5H366.5C370.643 484.5 374 481.143 374 477V467C374 449.631 359.869 435.5 342.5 435.5H341.5V382.5H484.5C499.664 382.5 512 370.164 512 355V342.864C512 338.722 508.643 335.364 504.5 335.364ZM359 467V469.5H154V467C154 457.902 161.402 450.5 170.5 450.5H342.5C351.598 450.5 359 457.902 359 467ZM326.5 435.5H185.5V382.5H326.5V435.5Z" fill="#505050"/>
<path d="M484.5 27.5H448.608C444.465 27.5 441.108 30.857 441.108 35C441.108 39.143 444.465 42.5 448.608 42.5H484.5C491.393 42.5 497 48.107 497 55V310.492C497 314.635 500.357 317.992 504.5 317.992C508.643 317.992 512 314.635 512 310.492V55C512 39.837 499.663 27.5 484.5 27.5V27.5Z" fill="#505050"/>
<path d="M37.5 111.271C33.357 111.271 30 114.628 30 118.771V345C30 349.143 33.357 352.5 37.5 352.5H474.5C478.643 352.5 482 349.143 482 345V65C482 60.857 478.643 57.5 474.5 57.5H37.5C33.357 57.5 30 60.857 30 65V86.679C30 90.822 33.357 94.179 37.5 94.179C41.643 94.179 45 90.822 45 86.679V72.5H467V337.5H45V118.771C45 114.629 41.643 111.271 37.5 111.271V111.271Z" fill="#505050"/>
<path d="M219.314 311.5C228.239 311.5 235.5 304.239 235.5 295.314V114.686C235.5 105.761 228.239 98.5 219.314 98.5H82.686C73.761 98.5 66.5 105.761 66.5 114.686V295.315C66.5 304.24 73.761 311.501 82.686 311.501H219.314V311.5ZM109.124 296.5V265.52C109.124 253.266 119.094 243.297 131.348 243.297H135.942C135.962 243.297 135.981 243.3 136 243.3H166C166.02 243.3 166.039 243.297 166.058 243.297H170.652C182.906 243.297 192.876 253.266 192.876 265.52V296.5H109.124ZM172.101 185.899C172.101 197.534 162.635 206.999 151 206.999C139.365 206.999 129.899 197.534 129.899 185.899V164.694C129.899 153.946 138.643 145.202 149.391 145.202H152.608C163.356 145.202 172.1 153.946 172.1 164.694V185.899H172.101ZM151 221.999C153.572 221.999 156.079 221.724 158.5 221.21V228.297H143.5V221.21C145.921 221.724 148.428 221.999 151 221.999ZM81.5 295.314V114.686C81.5 114.033 82.032 113.5 82.686 113.5H219.315C219.968 113.5 220.501 114.032 220.501 114.686V295.315C220.501 295.968 219.969 296.501 219.315 296.501H207.877V265.521C207.877 245.956 192.7 229.879 173.501 228.418V214.101C181.782 207.48 187.102 197.303 187.102 185.901V164.696C187.102 145.676 171.629 130.204 152.61 130.204H149.393C130.373 130.204 114.901 145.677 114.901 164.696V185.901C114.901 197.303 120.22 207.48 128.502 214.101V228.418C109.304 229.879 94.126 245.955 94.126 265.521V296.501H82.686C82.032 296.5 81.5 295.968 81.5 295.314V295.314Z" fill="#505050"/>
<path d="M429.314 311.5C438.239 311.5 445.5 304.239 445.5 295.314V114.686C445.5 105.761 438.239 98.5 429.314 98.5H292.686C283.761 98.5 276.5 105.761 276.5 114.686V295.315C276.5 304.24 283.761 311.501 292.686 311.501H429.314V311.5ZM319.124 296.5V265.52C319.124 253.266 329.094 243.297 341.348 243.297H345.942C345.962 243.297 345.981 243.3 346 243.3H376C376.02 243.3 376.039 243.297 376.058 243.297H380.652C392.906 243.297 402.876 253.266 402.876 265.52V296.5H319.124ZM382.101 185.899C382.101 197.534 372.635 206.999 361 206.999C349.365 206.999 339.899 197.534 339.899 185.899V164.694C339.899 153.946 348.643 145.202 359.391 145.202H362.608C373.356 145.202 382.1 153.946 382.1 164.694V185.899H382.101ZM361 221.999C363.572 221.999 366.079 221.724 368.5 221.21V228.297H353.5V221.21C355.921 221.724 358.428 221.999 361 221.999ZM291.5 295.314V114.686C291.5 114.033 292.032 113.5 292.686 113.5H429.315C429.968 113.5 430.501 114.032 430.501 114.686V295.315C430.501 295.968 429.969 296.501 429.315 296.501H417.877V265.521C417.877 245.956 402.7 229.879 383.501 228.418V214.101C391.782 207.48 397.102 197.303 397.102 185.901V164.696C397.102 145.676 381.629 130.204 362.61 130.204H359.393C340.373 130.204 324.901 145.677 324.901 164.696V185.901C324.901 197.303 330.22 207.48 338.502 214.101V228.418C319.304 229.879 304.126 245.955 304.126 265.521V296.501H292.688C292.032 296.5 291.5 295.968 291.5 295.314V295.314Z" fill="#505050"/>
</svg>
