<svg width="31" height="23" viewBox="0 0 31 23" fill="none" xmlns="http://www.w3.org/2000/svg">
<path d="M19.168 0.000503478C18.5535 0.00486979 17.9435 0.0343427 17.2991 0.204629C16.5972 0.392496 15.9311 0.692269 15.3273 1.09208C14.4792 0.600872 13.6577 0.196988 12.8705 0.10202C11.8929 -0.0169619 10.9851 0.0474416 9.92996 0.0692732C8.67889 0.0943795 7.86293 0.72422 6.53879 1.22853C5.21575 1.73066 3.51186 2.2175 1.10714 2.2175H0V12.724L0.623321 13.0307L2.66379 14.0207L9.92996 22.0024L9.96429 22.0362C10.7946 22.8462 11.9151 23.047 12.9049 22.9913C13.8957 22.9368 14.8257 22.6508 15.5686 22.2076C17.2039 21.235 21.6579 18.1818 21.6579 18.1818L21.762 18.1131L21.8317 18.0454C22.3587 17.5291 22.6234 16.8992 22.8005 16.2377L27.0552 14.1223L30.2383 13.0656L31 12.8255V2.2175H29.8929C28.0318 2.23005 26.1863 1.88217 24.4612 1.1936C23.1371 0.683832 22.3333 0.0605405 21.0689 0.0343426C20.3936 0.0212436 19.7802 -0.00386284 19.1669 0.000503478H19.168ZM19.2012 2.18366C19.6994 2.1793 20.2751 2.20549 21.0014 2.2175C21.1176 2.22187 22.1816 2.66941 23.6652 3.2414C24.9196 3.72715 26.6622 4.15833 28.7857 4.29805V11.2569L26.2249 12.1105H26.1562L26.0865 12.1432L22.7319 13.8155C22.5538 13.309 22.271 12.8444 21.9015 12.4511L21.8317 12.3484L17.1264 6.65259L16.4344 5.79897L15.5686 6.48121L12.5937 8.86958C11.5951 9.55182 10.7858 9.35534 9.96429 8.97219C9.72625 8.86085 9.73954 8.82701 9.54911 8.6993L14.601 4.57095L14.6696 4.50327C16.1698 3.03619 17.0921 2.5286 17.887 2.32011C18.2856 2.21313 18.7052 2.18803 19.2023 2.18366H19.2012ZM11.4877 2.2175C11.8571 2.20377 12.227 2.21508 12.5949 2.25134C12.8849 2.28518 13.2137 2.5286 13.495 2.62684C13.382 2.72945 13.3001 2.7884 13.1827 2.89974L13.1141 2.96851L7.05914 7.91336L6.12471 8.66437L6.95507 9.51689C6.95507 9.51689 7.75554 10.3705 8.99664 10.9501C10.2378 11.5298 12.1542 11.8583 13.8747 10.6772L13.9445 10.6085L16.089 8.86958L20.1721 13.8155L20.2065 13.8843L20.2408 13.917C20.9715 14.6298 20.9549 15.7509 20.2408 16.4768C20.2319 16.4844 20.2496 16.5019 20.2408 16.5095C20.2319 16.515 20.0858 16.6001 20.0681 16.6132L18.6144 14.6681L16.8153 15.9648L18.2346 17.8402C17.6589 18.2244 17.3999 18.4253 16.781 18.8302L15.2941 16.8512L13.4939 18.148L14.9132 20.0233C14.787 20.0998 14.5279 20.2711 14.4283 20.3312C14.0784 20.5397 13.4031 20.7743 12.8019 20.8082C12.2361 20.8388 11.8032 20.7099 11.5918 20.5353L11.5575 20.5015L4.15289 12.4172L4.0145 12.2458L2.21429 11.3595V4.29805C4.32893 4.1616 6.08486 3.74789 7.33482 3.27524C8.81396 2.71635 9.87018 2.25571 9.99861 2.25134L11.4866 2.2175H11.4877Z" fill="#505050"/>
</svg>
