<svg width="512" height="512" viewBox="0 0 512 512" fill="none" xmlns="http://www.w3.org/2000/svg">
<g clip-path="url(#clip0)">
<path d="M512 174.37C511.988 166.597 509.702 158.714 504.647 152.216L464.079 100.308C457.284 91.68 446.945 87.287 436.613 87.27C430.464 87.27 424.203 88.846 418.671 92.296L379.115 116.906C374.955 119.559 367.823 121.38 360.934 121.333C355.582 121.356 350.41 120.285 346.995 118.598L308.259 99.835C302.011 96.827 295.046 95.594 288.042 95.582C277.983 95.629 267.796 98.101 259.61 103.774L255.09 106.945C251.477 105.142 245.956 102.395 239.702 99.283C232.202 95.606 223.383 94.123 214.475 94.094C206.428 94.117 198.383 95.357 191.319 98.341L164.935 109.599C160.641 111.461 153.811 112.677 147.027 112.647C140.243 112.676 133.425 111.46 129.131 109.599L102.723 98.335C97.906 96.281 92.757 95.403 87.654 95.397C81.778 95.403 75.937 96.561 70.508 98.76C65.086 100.971 60.053 104.235 56.045 108.714L7.96503 162.56C2.63603 168.511 -0.0109659 176.005 3.4142e-05 183.382C-0.0109659 192.179 3.75303 201.004 11.013 207.189L55.863 245.453L34.587 267.648C28.722 273.769 25.802 281.705 25.802 289.552C25.791 297.901 29.107 306.331 35.675 312.538L39.991 316.639C44.058 320.497 48.945 322.951 54.059 324.26C51.494 328.978 50.092 334.151 50.103 339.334C50.092 347.689 53.408 356.113 59.964 362.327L59.953 362.321L64.282 366.44C70.444 372.281 78.432 375.19 86.302 375.185C90.532 375.191 94.767 374.341 98.747 372.677C100.144 378.344 103.029 383.731 107.567 388.036L111.896 392.155C118.058 397.996 126.033 400.905 133.916 400.9C140.078 400.906 146.268 399.09 151.597 395.565C153.156 400.58 155.827 405.333 159.893 409.196L164.222 413.315C170.371 419.156 178.359 422.065 186.231 422.06C194.614 422.066 203.08 418.773 209.333 412.245L228.137 392.609L253.684 416.253C259.799 421.925 267.648 424.747 275.396 424.73C283.908 424.748 292.495 421.338 298.761 414.63L302.839 410.261C306.359 406.48 308.657 402.005 309.99 397.334L319.886 406.468C326.012 412.117 333.85 414.927 341.587 414.921C350.11 414.927 358.721 411.517 364.993 404.804L369.048 400.44C373.731 395.437 376.367 389.24 377.181 382.911C379.793 383.58 382.44 384.034 385.11 384.034C393.633 384.034 402.22 380.63 408.498 373.923L412.565 369.559C418.249 363.467 421.077 355.654 421.065 347.951C421.065 345.56 420.722 343.181 420.192 340.83C427.261 339.893 434.115 336.74 439.327 331.143L443.405 326.774C449.089 320.682 451.905 312.869 451.905 305.16C451.916 296.678 448.496 288.119 441.747 281.883L434.12 274.838L502.958 198.728C509.138 191.876 511.989 183.056 512 174.37ZM62.014 308.065C58.367 308.054 54.8 306.75 52.013 304.109L47.69 300.008C44.699 297.18 43.222 293.417 43.21 289.553C43.222 285.929 44.519 282.391 47.19 279.604L90.766 234.131C93.605 231.169 97.393 229.686 101.279 229.681C104.915 229.687 108.47 230.996 111.28 233.643L115.585 237.75C115.585 237.75 120.042 244.341 120.053 248.21C120.042 251.107 119.169 253.929 117.476 256.373C117.331 256.518 70.444 305.383 70.444 305.383C67.954 307.145 65.01 308.052 62.014 308.065ZM96.816 353.422C93.983 356.372 90.201 357.849 86.315 357.861C82.668 357.855 79.112 356.546 76.314 353.905L71.985 349.791L71.974 349.785C69.007 346.969 67.517 343.194 67.517 339.33C67.517 335.706 68.826 332.168 71.484 329.381C71.484 329.381 129.57 268.916 130.059 268.333C132.835 265.663 136.412 264.284 140.106 264.278C143.753 264.284 147.309 265.587 150.107 268.234L154.436 272.353C157.414 275.169 158.893 278.939 158.904 282.808C158.892 286.432 157.584 289.975 154.924 292.762L96.816 353.422ZM144.423 379.13C141.596 382.087 137.815 383.566 133.928 383.577C130.281 383.571 126.725 382.262 123.927 379.615L119.586 375.501C116.608 372.679 115.118 368.91 115.118 365.046C115.118 361.812 116.218 358.675 118.323 356.063L158.775 313.842C161.504 311.381 164.924 310.084 168.468 310.084C172.115 310.09 175.671 311.393 178.469 314.04L182.81 318.159C185.777 320.975 187.267 324.745 187.278 328.608C187.266 332.239 185.946 335.782 183.298 338.562L144.423 379.13ZM221.285 374.674L196.739 400.292C193.911 403.247 190.124 404.726 186.238 404.737C182.591 404.731 179.035 403.422 176.237 400.775L171.908 396.661C168.941 393.845 167.451 390.07 167.44 386.206C167.451 382.575 168.76 379.032 171.42 376.257L195.955 350.64C198.794 347.685 202.582 346.201 206.468 346.195C210.104 346.201 213.671 347.504 216.469 350.157L220.81 354.271C223.777 357.087 225.255 360.857 225.267 364.72C225.253 368.35 223.944 371.893 221.285 374.674ZM434.523 305.183C434.518 308.741 433.243 312.226 430.66 314.995L426.593 319.359C423.754 322.396 419.902 323.932 415.958 323.938C412.38 323.932 408.877 322.675 406.097 320.105L337.562 256.724L325.711 269.413L399.069 337.372C402.124 340.2 403.659 344.04 403.682 347.961C403.659 351.533 402.396 355.012 399.819 357.782L395.764 362.146C392.925 365.183 389.073 366.713 385.129 366.725C381.551 366.714 378.037 365.451 375.279 362.897L306.726 299.517L294.887 312.206L355.725 368.466C358.657 371.276 360.159 375.017 360.159 378.856C360.159 382.417 358.896 385.901 356.319 388.665L352.252 393.029C349.424 396.066 345.561 397.602 341.606 397.613C338.016 397.602 334.514 396.339 331.745 393.785L271.029 337.729H271.018L271.007 337.718L259.191 350.43L259.203 350.441L259.43 350.656L289.84 378.722C292.534 381.491 293.93 385.04 293.941 388.711C293.93 392.254 292.678 395.721 290.101 398.486L286.034 402.855C283.195 405.892 279.355 407.416 275.422 407.428C271.844 407.417 268.341 406.16 265.572 403.595L239.095 379.078C241.399 374.558 242.685 369.653 242.685 364.731C242.696 356.382 239.38 347.964 232.824 341.745L228.483 337.626C222.334 331.79 214.357 328.876 206.486 328.887C205.875 328.887 205.259 329.027 204.66 329.062C204.66 328.917 204.694 328.765 204.694 328.62C204.705 320.271 194.833 305.622 194.833 305.622L190.504 301.515C185.902 297.151 180.287 294.429 174.447 293.335C175.651 289.926 176.332 286.377 176.332 282.822C176.332 274.473 173.027 266.048 166.471 259.836L162.142 255.717C155.98 249.876 148.005 246.961 140.133 246.967C139.214 246.967 138.307 247.153 137.393 247.235C137.143 239.218 133.914 231.207 127.631 225.238V225.232L123.314 221.131C117.152 215.284 109.177 212.369 101.305 212.375C92.909 212.369 84.456 215.662 78.203 222.19L67.917 232.924L22.351 194.06C19.076 191.256 17.441 187.381 17.429 183.402C17.44 180.068 18.575 176.804 20.995 174.094L69.074 120.249C70.982 118.108 73.804 116.171 77.109 114.826C80.414 113.482 84.166 112.744 87.674 112.749C90.729 112.749 93.596 113.302 95.889 114.291L122.285 125.554C129.726 128.69 138.365 129.976 147.047 130.004C155.739 129.975 164.367 128.689 171.809 125.554L198.193 114.296C202.26 112.522 208.397 111.422 214.5 111.445C221.249 111.404 228.009 112.801 231.93 114.802C234.42 116.041 236.782 117.217 238.975 118.316L212.067 137.231C203.421 143.311 198.761 152.98 198.773 162.737C198.762 169.195 200.809 175.769 204.975 181.348L204.964 181.336L208.518 186.112C215.267 195.084 225.791 199.697 236.31 199.72C242.25 199.72 248.301 198.219 253.694 194.984L269.786 185.32C273.068 183.313 278.024 182.045 283.149 182.068C289.171 182.033 295.239 183.814 298.887 186.495L343.406 218.412C353.314 225.51 369.452 238.676 378.395 246.961L429.924 294.604C432.975 297.433 434.511 301.256 434.523 305.183ZM490.038 187.146L421.392 263.052L390.225 234.242C380.463 225.23 364.365 212.088 353.567 204.332L309.06 172.415C301.514 167.069 292.275 164.758 283.141 164.724C275.368 164.747 267.537 166.441 260.777 170.466L244.697 180.13C242.23 181.613 239.322 182.37 236.301 182.376C230.901 182.394 225.497 179.874 222.484 175.772L218.941 171.002L218.929 170.99C217.044 168.448 216.166 165.597 216.153 162.711C216.176 158.347 218.189 154.112 222.088 151.36L269.667 117.93C273.781 114.952 281.1 112.863 288.052 112.915C292.881 112.892 297.494 113.863 300.653 115.423L339.388 134.186C345.992 137.357 353.445 138.654 360.943 138.672C370.577 138.625 380.316 136.531 388.34 131.603L427.908 106.988C430.433 105.412 433.464 104.597 436.624 104.597C441.965 104.586 447.317 107.006 450.348 110.956L490.916 162.864C493.255 165.837 494.61 170.031 494.61 174.378C494.617 179.239 492.9 184.022 490.038 187.146Z" fill="#505050"/>
</g>
<defs>
<clipPath id="clip0">
<rect width="512" height="512" fill="white"/>
</clipPath>
</defs>
</svg>
