<svg width="513" height="513" viewBox="0 0 513 513" fill="none" xmlns="http://www.w3.org/2000/svg">
<path d="M474.939 381.233L381.207 318.725C369.313 310.856 353.368 313.446 344.574 324.675L317.272 359.779C313.763 364.406 307.384 365.748 302.308 362.928L297.115 360.065C279.898 350.681 258.476 338.998 215.314 295.821C172.153 252.644 160.446 231.206 151.062 214.021L148.214 208.827C145.356 203.752 146.672 197.347 151.301 193.81L186.382 166.515C197.607 157.72 200.199 141.78 192.34 129.882L129.832 36.1508C121.777 24.0344 105.616 20.3972 93.1464 27.8932L53.9514 51.4377C41.6361 58.6778 32.6009 70.4035 28.7403 84.1576C14.6262 135.584 25.2441 224.337 155.986 355.095C259.989 459.089 337.414 487.056 390.631 487.056C402.878 487.109 415.078 485.515 426.901 482.318C440.658 478.462 452.385 469.426 459.621 457.107L483.189 417.936C490.696 405.463 487.06 389.293 474.939 381.233ZM469.891 410.017L446.378 449.212C441.182 458.104 432.748 464.641 422.84 467.455C375.365 480.49 292.423 469.694 166.905 344.176C41.3874 218.658 30.5923 135.723 43.6266 88.2407C46.4445 78.3219 52.9901 69.8763 61.8924 64.6727L101.087 41.159C106.498 37.9034 113.512 39.4814 117.007 44.7393L150.963 95.7178L179.462 138.462C182.875 143.623 181.754 150.541 176.885 154.36L141.795 181.654C131.117 189.82 128.067 204.594 134.642 216.32L137.428 221.382C147.291 239.471 159.553 261.973 204.32 306.733C249.086 351.491 271.582 363.754 289.662 373.616L294.732 376.409C306.457 382.983 321.232 379.934 329.397 369.256L356.692 334.167C360.512 329.3 367.426 328.18 372.589 331.589L466.312 394.097C471.574 397.59 473.152 404.608 469.891 410.017Z" fill="#505050"/>
<path d="M286.404 101.205C358.825 101.286 417.513 159.975 417.594 232.395C417.594 236.657 421.048 240.112 425.311 240.112C429.573 240.112 433.027 236.657 433.027 232.395C432.938 151.454 367.345 85.8605 286.404 85.7719C282.142 85.7719 278.687 89.2264 278.687 93.4886C278.687 97.7507 282.142 101.205 286.404 101.205Z" fill="#505050"/>
<path d="M286.404 147.508C333.263 147.563 371.237 185.536 371.292 232.395C371.292 236.657 374.747 240.112 379.008 240.112C383.271 240.112 386.725 236.657 386.725 232.395C386.661 177.015 341.783 132.137 286.404 132.074C282.142 132.074 278.687 135.529 278.687 139.791C278.687 144.053 282.142 147.508 286.404 147.508Z" fill="#505050"/>
<path d="M286.404 193.81C307.703 193.835 324.963 211.095 324.99 232.395C324.99 236.657 328.445 240.112 332.706 240.112C336.968 240.112 340.423 236.657 340.423 232.395C340.389 202.575 316.224 178.41 286.404 178.376C282.142 178.376 278.687 181.831 278.687 186.093C278.687 190.355 282.142 193.81 286.404 193.81Z" fill="#505050"/>
</svg>
