<svg width="35" height="34" viewBox="0 0 35 34" fill="none" xmlns="http://www.w3.org/2000/svg">
<path d="M26.7173 33.7869C26.381 33.7859 26.0457 33.7491 25.7173 33.6769C19.4639 32.3833 13.7029 29.3503 9.09728 24.9269C4.58995 20.4938 1.46388 14.8495 0.0972848 8.67688C-0.0638538 7.90759 -0.024304 7.10978 0.212129 6.3602C0.448563 5.61062 0.873922 4.9345 1.44728 4.39688L5.44728 0.546884C5.65159 0.353671 5.89434 0.205713 6.1597 0.112666C6.42506 0.0196186 6.70705 -0.0164263 6.98728 0.00688365C7.27785 0.0371966 7.55825 0.130797 7.80875 0.281102C8.05926 0.431408 8.2738 0.634768 8.43728 0.876884L13.4373 8.26688C13.6248 8.55363 13.7153 8.89298 13.6955 9.23502C13.6757 9.57705 13.5466 9.90369 13.3273 10.1669L10.8173 13.1669C11.8169 15.3793 13.2326 17.379 14.9873 19.0569C16.7306 20.7957 18.7911 22.1841 21.0573 23.1469L24.1673 20.6769C24.4285 20.4704 24.7463 20.3484 25.0786 20.327C25.4108 20.3055 25.7417 20.3857 26.0273 20.5569L33.5773 25.4369C33.8364 25.5916 34.0571 25.8029 34.2229 26.055C34.3888 26.3071 34.4954 26.5935 34.5348 26.8927C34.5743 27.1918 34.5455 27.4961 34.4507 27.7825C34.3559 28.069 34.1974 28.3303 33.9873 28.5469L30.0873 32.4069C29.6443 32.8477 29.1185 33.1966 28.5401 33.4334C27.9617 33.6703 27.3422 33.7904 26.7173 33.7869V33.7869ZM6.82728 1.98688L2.82728 5.83688C2.50474 6.13743 2.26597 6.51676 2.13447 6.93757C2.00297 7.35837 1.98326 7.80616 2.07728 8.23688C3.34801 14.029 6.269 19.3292 10.4873 23.4969C14.8215 27.6584 20.2429 30.5113 26.1273 31.7269C26.5727 31.82 27.0342 31.8011 27.4706 31.672C27.9069 31.5428 28.3043 31.3074 28.6273 30.9869L32.5273 27.1269L25.2373 22.4169L21.8973 25.0769C21.7694 25.1781 21.6187 25.2465 21.4584 25.2761C21.298 25.3057 21.1329 25.2957 20.9773 25.2469C18.204 24.2251 15.6907 22.6031 13.6173 20.4969C11.4726 18.4941 9.80791 16.0329 8.74728 13.2969C8.70241 13.1312 8.70092 12.9569 8.74296 12.7905C8.78499 12.6241 8.86913 12.4713 8.98728 12.3469L11.6873 9.11688L6.82728 1.98688Z" fill="#505050"/>
</svg>
