<svg width="36" height="36" viewBox="0 0 36 36" fill="none" xmlns="http://www.w3.org/2000/svg">
<path d="M15.2202 20.64C17.3077 22.7577 19.8335 24.3926 22.6202 25.43L26.3902 22.43C26.502 22.353 26.6345 22.3118 26.7702 22.3118C26.906 22.3118 27.0385 22.353 27.1502 22.43L34.1502 26.94C34.416 27.0998 34.6409 27.3192 34.8073 27.5808C34.9737 27.8425 35.077 28.1392 35.109 28.4476C35.141 28.7561 35.1009 29.0677 34.9918 29.3579C34.8826 29.6482 34.7075 29.9091 34.4802 30.12L31.2002 33.36C30.7305 33.8241 30.1532 34.1648 29.5198 34.3515C28.8864 34.5382 28.2166 34.5652 27.5702 34.43C21.1224 33.0983 15.1794 29.9795 10.4202 25.43C5.76672 20.8353 2.54651 14.9889 1.15024 8.60001C1.0123 7.96365 1.04109 7.30245 1.23381 6.68049C1.42654 6.05852 1.77665 5.49689 2.25024 5.05001L5.65024 1.77001C5.86064 1.5538 6.11722 1.38799 6.40079 1.28499C6.68435 1.18199 6.98754 1.14448 7.28765 1.17526C7.58776 1.20604 7.87702 1.30432 8.13377 1.46273C8.39052 1.62115 8.60811 1.83559 8.77024 2.09001L13.4302 9.00001C13.5106 9.10852 13.554 9.23998 13.554 9.37501C13.554 9.51005 13.5106 9.64151 13.4302 9.75001L10.3602 13.44C11.4258 16.171 13.086 18.6304 15.2202 20.64V20.64Z" fill="#505050"/>
</svg>
