<svg width="512" height="512" viewBox="0 0 512 512" fill="none" xmlns="http://www.w3.org/2000/svg">
<path d="M508.046 455.014L500.742 447.709C497.813 444.779 493.064 444.78 490.136 447.708C487.206 450.637 487.206 455.386 490.135 458.314L496.378 464.558L464.56 496.377L410.466 442.284L442.285 410.465L467.521 435.701C470.451 438.629 475.199 438.629 478.128 435.701C481.057 432.771 481.057 428.023 478.128 425.094L447.602 394.569C447.597 394.564 447.593 394.559 447.589 394.554L426.376 373.341C426.37 373.335 426.364 373.331 426.358 373.325L407.637 354.604C405.087 352.053 401.697 350.648 398.09 350.648C394.483 350.648 391.093 352.053 388.544 354.602L387.483 355.664L360.646 328.82C379.828 304.854 393.682 276.453 400.406 245.422H453.251C457.394 245.422 460.751 242.065 460.751 237.922C460.751 233.779 457.394 230.422 453.251 230.422H403.065C403.726 225.652 404.22 220.83 404.541 215.961H489C493.143 215.961 496.5 212.604 496.5 208.461C496.5 204.318 493.143 200.961 489 200.961H404.984C404.948 196.108 404.747 191.286 404.379 186.499H453.252C457.395 186.499 460.752 183.142 460.752 178.999C460.752 174.856 457.395 171.499 453.252 171.499H402.666C397.426 137.02 383.413 104.768 361.362 76.91C358.791 73.663 354.075 73.115 350.826 75.684C347.579 78.255 347.03 82.972 349.6 86.22C376.03 119.609 390 159.818 390 202.5C390 305.888 305.888 390 202.5 390C99.112 390 15 305.888 15 202.5C15 99.112 99.112 15 202.5 15C249.238 15 294.011 32.298 328.569 63.707C331.633 66.495 336.379 66.267 339.163 63.202C341.949 60.137 341.723 55.393 338.657 52.607C301.333 18.683 252.978 0 202.5 0C90.841 0 0 90.841 0 202.5C0 301.082 70.814 383.421 164.243 401.359V451.958C164.243 456.101 167.6 459.458 171.743 459.458C175.886 459.458 179.243 456.101 179.243 451.958V403.657C184.016 404.205 188.838 404.589 193.705 404.798V487.228C193.705 491.371 197.062 494.728 201.205 494.728C205.348 494.728 208.705 491.371 208.705 487.228V404.896C213.569 404.749 218.393 404.439 223.167 403.953V451.958C223.167 456.101 226.524 459.458 230.667 459.458C234.81 459.458 238.167 456.101 238.167 451.958V401.854C272.03 395.812 302.997 381.316 328.821 360.646L355.665 387.484L354.605 388.544C352.054 391.094 350.649 394.484 350.649 398.091C350.649 401.698 352.054 405.088 354.603 407.637L373.331 426.364C373.335 426.368 373.338 426.372 373.342 426.376L394.555 447.589C394.559 447.593 394.565 447.597 394.569 447.602L455.012 508.044C457.562 510.596 460.952 512 464.559 512C468.166 512 471.555 510.596 474.106 508.046L508.046 474.106C510.596 471.555 512 468.166 512 464.559C512 460.952 510.596 457.562 508.046 455.014V455.014ZM350.821 340.208L376.875 366.268L366.269 376.874L340.209 350.82C343.875 347.415 347.415 343.875 350.821 340.208ZM399.859 431.678L389.252 421.072L421.071 389.253L431.677 399.86L399.859 431.678ZM398.091 366.271L410.465 378.645L378.646 410.464L366.272 398.09L398.091 366.271Z" fill="#505050"/>
<path d="M98.0561 339.792C128.095 362.371 164.181 374.546 202.5 375C297.617 375 375 297.617 375 202.5C375 107.383 297.617 30 202.5 30C156.597 30 113.422 47.967 80.9311 80.591C48.5771 113.076 30.4901 156.343 30.0001 202.42C29.5501 244.839 44.9631 285.611 73.3991 317.225C76.1691 320.304 80.9111 320.556 83.9911 317.786C87.0711 315.016 87.3221 310.273 84.5521 307.194C58.6361 278.382 44.5891 241.229 45.0001 202.58C45.4471 160.437 61.9821 120.873 91.5591 91.177C121.215 61.399 160.614 45 202.5 45C289.346 45 360 115.654 360 202.5C360 289.346 289.346 360 202.589 360.001C167.57 359.585 134.54 348.45 107.068 327.802C103.759 325.311 99.0551 325.98 96.5671 329.291C94.0771 332.602 94.7441 337.304 98.0561 339.792V339.792Z" fill="#505050"/>
<path d="M231 68.5H179C172.659 68.5 167.5 73.659 167.5 80V106.5H119C112.659 106.5 107.5 111.659 107.5 118V198.5H97.4619C93.3189 198.5 89.9619 201.857 89.9619 206C89.9619 210.143 93.3189 213.5 97.4619 213.5H312.538C316.681 213.5 320.038 210.143 320.038 206C320.038 201.857 316.681 198.5 312.538 198.5H302.5V156C302.5 149.659 297.341 144.5 291 144.5H242.5V80C242.5 73.659 237.341 68.5 231 68.5ZM122.5 121.5H167.5V198.5H122.5V121.5ZM182.5 83.5H227.5V198.5H182.5V83.5ZM287.5 159.5V198.5H242.5V159.5H287.5Z" fill="#505050"/>
<path d="M289 277.053H253.691L237.651 236.05C236.517 233.153 233.739 231.278 230.6 231.282C227.488 231.31 224.716 233.257 223.634 236.175L201.714 295.284L186.394 251.861C185.414 249.081 182.896 247.133 179.958 246.883C177.024 246.629 174.21 248.127 172.772 250.699L158.06 277.052H122.844C118.701 277.052 115.344 280.409 115.344 284.552C115.344 288.695 118.701 292.052 122.844 292.052H162.462C165.18 292.052 167.686 290.581 169.011 288.208L177.774 272.513L194.465 319.823C195.516 322.802 198.319 324.802 201.478 324.828H201.539C204.672 324.828 207.479 322.878 208.57 319.935L230.853 259.847L241.586 287.285C242.711 290.16 245.482 292.053 248.57 292.053H289C293.143 292.053 296.5 288.696 296.5 284.553C296.5 280.41 293.143 277.053 289 277.053V277.053Z" fill="#505050"/>
</svg>
