<svg width="512" height="512" viewBox="0 0 512 512" fill="none" xmlns="http://www.w3.org/2000/svg">
<path d="M414.843 263.5H437.141C440.63 280.765 455.918 293.805 474.196 293.805C495.041 293.805 512 276.846 512 256C512 235.154 495.041 218.195 474.195 218.195C455.917 218.195 440.629 231.235 437.14 248.5H414.842C413.059 210.297 397.739 175.573 373.572 149.034L413.736 108.871C421.642 114.628 431.363 118.037 441.87 118.037C468.286 118.037 489.776 96.546 489.776 70.13C489.776 43.714 468.286 22.224 441.87 22.224C415.454 22.224 393.964 43.715 393.964 70.13C393.964 80.637 397.372 90.358 403.13 98.264L362.966 138.427C336.427 114.261 301.703 98.94 263.5 97.158V74.86C280.765 71.371 293.805 56.083 293.805 37.805C293.805 16.959 276.846 0 256 0C235.154 0 218.195 16.959 218.195 37.805C218.195 56.083 231.235 71.371 248.5 74.86V97.157C210.297 98.94 175.573 114.26 149.034 138.426L108.873 98.266C114.631 90.359 118.04 80.637 118.04 70.13C118.04 54.178 110.139 39.323 96.905 30.393C93.469 28.077 88.808 28.981 86.493 32.415C84.176 35.849 85.081 40.51 88.514 42.827C97.61 48.964 103.039 59.171 103.039 70.13C103.039 88.276 88.275 103.04 70.129 103.04C51.983 103.04 37.22 88.276 37.22 70.13C37.22 55.476 47.055 42.451 61.137 38.456C65.122 37.325 67.436 33.178 66.305 29.193C65.174 25.208 61.025 22.897 57.043 24.025C36.539 29.843 22.22 48.802 22.22 70.13C22.22 96.548 43.712 118.04 70.13 118.04C80.638 118.04 90.36 114.631 98.266 108.873L138.427 149.033C114.26 175.572 98.94 210.296 97.157 248.499H74.86C71.371 231.234 56.083 218.194 37.805 218.194C16.959 218.195 0 235.154 0 256C0 276.846 16.959 293.805 37.805 293.805C56.083 293.805 71.371 280.765 74.86 263.5H97.158C98.941 301.703 114.261 336.427 138.428 362.966L98.264 403.129C90.358 397.372 80.637 393.963 70.13 393.963C43.714 393.963 22.224 415.454 22.224 441.87C22.224 468.286 43.714 489.776 70.13 489.776C96.546 489.776 118.036 468.285 118.036 441.87C118.036 431.363 114.628 421.642 108.87 413.736L149.034 373.573C175.573 397.739 210.297 413.06 248.5 414.842V437.139C231.235 440.628 218.195 455.916 218.195 474.194C218.195 495.041 235.154 512 256 512C276.846 512 293.805 495.041 293.805 474.195C293.805 455.917 280.765 440.629 263.5 437.14V414.843C301.703 413.06 336.427 397.74 362.966 373.574L403.127 413.734C397.369 421.641 393.96 431.363 393.96 441.87C393.96 468.287 415.452 489.78 441.87 489.78C468.288 489.78 489.78 468.288 489.78 441.87C489.78 436.684 488.954 431.577 487.325 426.688C486.014 422.759 481.765 420.635 477.839 421.944C473.909 423.254 471.785 427.501 473.095 431.431C474.213 434.786 474.781 438.299 474.781 441.869C474.781 460.015 460.017 474.779 441.871 474.779C423.725 474.779 408.961 460.016 408.961 441.869C408.961 423.722 423.725 408.959 441.871 408.959C446.024 408.959 450.074 409.723 453.908 411.23C457.759 412.745 462.116 410.848 463.632 406.993C465.147 403.138 463.25 398.785 459.395 397.269C453.806 395.073 447.911 393.959 441.872 393.959C431.364 393.959 421.642 397.368 413.736 403.126L373.575 362.966C397.739 336.427 413.06 301.703 414.843 263.5V263.5ZM474.195 233.195C486.77 233.195 497 243.425 497 256C497 268.575 486.77 278.805 474.195 278.805C461.62 278.805 451.39 268.575 451.39 256C451.39 243.425 461.621 233.195 474.195 233.195ZM441.87 37.224C460.015 37.224 474.776 51.986 474.776 70.13C474.776 88.275 460.014 103.037 441.87 103.037C423.726 103.037 408.964 88.275 408.964 70.13C408.964 51.985 423.726 37.224 441.87 37.224V37.224ZM233.195 37.805C233.195 25.23 243.426 15 256 15C268.574 15 278.805 25.23 278.805 37.805C278.805 50.38 268.574 60.61 256 60.61C243.426 60.61 233.195 50.379 233.195 37.805ZM37.805 278.805C25.23 278.805 15 268.575 15 256C15 243.425 25.23 233.195 37.805 233.195C50.38 233.195 60.609 243.425 60.609 256C60.609 268.575 50.379 278.805 37.805 278.805ZM256 111.976C335.415 111.976 400.024 176.585 400.024 256C400.024 335.415 335.415 400.024 256 400.024C176.585 400.024 111.976 335.416 111.976 256C111.976 176.584 176.585 111.976 256 111.976ZM70.13 474.776C51.985 474.776 37.224 460.014 37.224 441.87C37.224 423.725 51.986 408.963 70.13 408.963C88.274 408.963 103.036 423.725 103.036 441.87C103.036 460.015 88.274 474.776 70.13 474.776ZM278.805 474.195C278.805 486.77 268.574 497 256 497C243.426 497 233.195 486.77 233.195 474.195C233.195 461.62 243.426 451.39 256 451.39C268.574 451.39 278.805 461.621 278.805 474.195Z" fill="#505050"/>
<path d="M171.15 348.35H213.505C213.528 348.35 213.55 348.353 213.573 348.353C213.596 348.353 213.618 348.35 213.641 348.35H238.5C242.643 348.35 246 344.992 246 340.85C246 336.708 242.643 333.35 238.5 333.35H221.073V320.65C221.073 316.508 217.716 313.15 213.573 313.15C209.43 313.15 206.073 316.508 206.073 320.65V333.35H178.65V296.41C178.65 278.264 193.409 263.5 211.549 263.5H300.449C318.59 263.5 333.348 278.264 333.348 296.41V333.35H305.925V320.65C305.925 316.508 302.568 313.15 298.425 313.15C294.282 313.15 290.925 316.508 290.925 320.65V333.35H273.5C269.357 333.35 266 336.708 266 340.85C266 344.992 269.357 348.35 273.5 348.35H298.359C298.382 348.35 298.404 348.353 298.427 348.353C298.45 348.353 298.472 348.35 298.495 348.35H340.85C344.993 348.35 348.35 344.992 348.35 340.85V296.41C348.35 269.992 326.863 248.5 300.451 248.5H294.883C306.621 237.878 314.009 222.532 314.009 205.492C314.009 173.506 287.987 147.484 256.001 147.484C224.015 147.484 197.993 173.506 197.993 205.492C197.993 222.532 205.381 237.878 217.119 248.5H211.551C185.139 248.5 163.652 269.992 163.652 296.41V340.85C163.65 344.992 167.008 348.35 171.15 348.35V348.35ZM212.992 205.492C212.992 181.778 232.285 162.484 256 162.484C279.715 162.484 299.008 181.777 299.008 205.492C299.008 229.207 279.715 248.5 256 248.5C232.285 248.5 212.992 229.207 212.992 205.492V205.492Z" fill="#505050"/>
</svg>
