<svg width="512" height="512" viewBox="0 0 512 512" fill="none" xmlns="http://www.w3.org/2000/svg">
<g clip-path="url(#clip0)">
<path d="M468.15 157.858H446.592V143.995L460.043 129.181C467.026 121.491 470.871 111.536 470.871 101.148V66.017C470.871 41.452 450.885 21.467 426.32 21.467H405.828C381.263 21.467 361.278 41.453 361.278 66.017V101.148C361.278 111.536 365.124 121.492 372.105 129.181L385.558 143.997V157.858H364C343.056 157.858 325.503 172.622 321.179 192.288C318.978 191.98 316.734 191.81 314.45 191.81H289.198V174.852L304.602 157.889C312.303 149.407 316.545 138.426 316.545 126.969V87.4C316.545 60.268 294.472 38.197 267.341 38.197C263.089 38.197 259.644 41.642 259.644 45.894C259.644 50.146 263.089 53.591 267.341 53.591C285.984 53.591 301.151 68.757 301.151 87.4V126.968C301.151 134.591 298.329 141.896 293.206 147.539L277.344 165.008C275.216 166.377 273.806 168.766 273.806 171.486V199.508C273.806 203.76 277.251 207.205 281.503 207.205H314.452C332.659 207.205 347.473 222.018 347.473 240.226V288.524H164.13V240.226C164.13 226.03 173.136 213.9 185.732 209.242C186.324 209.118 186.888 208.921 187.421 208.669C190.498 207.719 193.766 207.204 197.15 207.204H230.099C234.35 207.204 237.796 203.759 237.796 199.507V171.485C237.796 168.766 236.386 166.376 234.258 165.007L218.396 147.538C213.272 141.895 210.449 134.589 210.449 126.967V87.4C210.449 68.758 225.615 53.591 244.259 53.591C248.51 53.591 251.956 50.146 251.956 45.894C251.956 41.642 248.51 38.197 244.259 38.197C217.127 38.197 195.055 60.269 195.055 87.4V126.968C195.055 138.424 199.297 149.405 206.998 157.888L222.4 174.85V191.809H197.148C194.997 191.809 192.883 191.964 190.806 192.238C186.464 172.597 168.925 157.858 147.998 157.858H126.44V143.995L139.891 129.181C146.874 121.491 150.719 111.536 150.719 101.148V66.017C150.719 41.452 130.733 21.467 106.168 21.467H85.678C61.113 21.467 41.128 41.453 41.128 66.017V101.148C41.128 111.536 44.973 121.492 51.956 129.181L65.408 143.996V157.858H43.85C19.671 157.858 0 177.529 0 201.708V251.424C0 255.676 3.446 259.121 7.697 259.121H127.455C131.706 259.121 135.152 255.676 135.152 251.424C135.152 247.172 131.706 243.727 127.455 243.727H15.394V201.708C15.394 186.018 28.159 173.252 43.85 173.252H73.105C77.356 173.252 80.802 169.807 80.802 165.555V140.675C80.802 137.998 79.435 135.64 77.361 134.261L63.352 118.833C58.947 113.982 56.521 107.702 56.521 101.149V66.017C56.521 49.94 69.6 36.861 85.677 36.861H106.169C122.246 36.861 135.326 49.94 135.326 66.017V101.148C135.326 107.701 132.9 113.982 128.495 118.832L114.485 134.261C112.412 135.64 111.046 137.998 111.046 140.674V165.554C111.046 169.806 114.492 173.251 118.743 173.251H147.998C161.973 173.251 173.619 183.38 176 196.681C159.873 204.545 148.735 221.105 148.735 240.223V296.218C148.735 300.47 152.181 303.915 156.432 303.915H355.168C359.42 303.915 362.865 300.47 362.865 296.218V240.223C362.865 221.252 351.892 204.804 335.964 196.868C338.269 183.476 349.959 173.251 364 173.251H393.255C397.507 173.251 400.952 169.806 400.952 165.554V140.674C400.952 137.996 399.585 135.638 397.51 134.259L383.502 118.832C379.097 113.982 376.672 107.701 376.672 101.148V66.017C376.672 49.94 389.751 36.861 405.828 36.861H426.32C442.397 36.861 455.477 49.94 455.477 66.017V101.148C455.477 107.701 453.051 113.982 448.646 118.832L434.637 134.261C432.563 135.64 431.197 137.998 431.197 140.674V165.554C431.197 169.806 434.642 173.251 438.894 173.251H468.149C483.839 173.251 496.605 186.016 496.605 201.707V243.726H385.868C381.616 243.726 378.171 247.171 378.171 251.423C378.171 255.675 381.616 259.12 385.868 259.12H504.302C508.554 259.12 511.999 255.675 511.999 251.423V201.707C512 177.529 492.329 157.858 468.15 157.858Z" fill="white"/>
<path d="M333.406 401.466C332.518 398.728 330.175 396.715 327.333 396.248L285.287 389.346L265.73 351.49C264.409 348.933 261.771 347.325 258.892 347.325C256.013 347.325 253.375 348.931 252.054 351.49L232.497 389.346L190.451 396.248C187.61 396.715 185.267 398.727 184.377 401.466C183.487 404.204 184.2 407.209 186.224 409.257L216.182 439.554L209.753 481.674C209.319 484.52 210.508 487.371 212.838 489.062C214.178 490.036 215.766 490.533 217.363 490.533C218.541 490.533 219.725 490.262 220.817 489.713L258.89 470.583L296.963 489.713C299.536 491.006 302.615 490.756 304.942 489.062C307.272 487.371 308.461 484.52 308.027 481.674L301.597 439.554L331.555 409.257C333.584 407.209 334.296 404.204 333.406 401.466ZM287.936 431.479C286.225 433.21 285.434 435.648 285.8 438.052L290.565 469.266L262.349 455.09C260.174 453.998 257.612 453.998 255.438 455.09L227.222 469.266L231.986 438.052C232.353 435.646 231.561 433.208 229.85 431.479L207.646 409.025L238.806 403.911C241.207 403.516 243.281 402.009 244.397 399.848L258.891 371.793L273.384 399.848C274.501 402.009 276.574 403.516 278.975 403.911L310.135 409.025L287.936 431.479Z" fill="white"/>
<path d="M501.894 344.869C501.004 342.131 498.663 340.118 495.823 339.651L453.777 332.749L434.219 294.893C432.898 292.336 430.26 290.728 427.381 290.728C424.501 290.728 421.864 292.334 420.543 294.893L400.986 332.749L358.939 339.651C356.098 340.118 353.755 342.13 352.865 344.869C351.975 347.607 352.687 350.613 354.712 352.66L384.671 382.957L378.241 425.078C377.807 427.924 378.996 430.775 381.326 432.466C383.656 434.158 386.734 434.411 389.305 433.117L427.378 413.987L465.451 433.117C466.543 433.666 467.727 433.937 468.905 433.937C470.503 433.937 472.091 433.441 473.43 432.466C475.76 430.775 476.949 427.924 476.515 425.078L470.085 382.957L500.044 352.66C502.072 350.613 502.784 347.607 501.894 344.869ZM456.424 374.883C454.713 376.613 453.922 379.052 454.288 381.456L459.053 412.671L430.837 398.495C429.749 397.949 428.566 397.675 427.381 397.675C426.196 397.675 425.012 397.949 423.925 398.495L395.709 412.671L400.474 381.456C400.84 379.05 400.049 376.612 398.338 374.883L376.135 352.43L407.295 347.316C409.697 346.921 411.77 345.414 412.886 343.253L427.379 315.198L441.873 343.253C442.99 345.414 445.063 346.921 447.464 347.316L478.623 352.43L456.424 374.883Z" fill="white"/>
<path d="M164.919 344.87C164.03 342.131 161.686 340.118 158.845 339.651L116.799 332.749L97.2421 294.893C95.9201 292.336 93.2831 290.728 90.4031 290.728C87.5231 290.728 84.8861 292.334 83.5641 294.893L64.0091 332.75L21.9631 339.652C19.1221 340.119 16.7791 342.131 15.8891 344.87C14.9991 347.608 15.7121 350.614 17.7361 352.661L47.6951 382.958L41.2661 425.079C40.8321 427.925 42.0211 430.776 44.3511 432.467C46.6801 434.159 49.7581 434.412 52.3301 433.118L90.4031 413.988L128.475 433.118C129.567 433.667 130.751 433.938 131.929 433.938C133.526 433.938 135.115 433.442 136.454 432.467C138.784 430.776 139.973 427.925 139.539 425.079L133.11 382.958L163.068 352.661C165.095 350.613 165.809 347.608 164.919 344.87ZM119.447 374.883C117.736 376.613 116.944 379.052 117.311 381.456L122.075 412.671L93.8601 398.495C92.7731 397.948 91.5891 397.675 90.4041 397.675C89.2191 397.675 88.0351 397.949 86.9481 398.495L58.7321 412.671L63.4971 381.456C63.8641 379.05 63.0721 376.612 61.3611 374.883L39.1611 352.43L70.3211 347.316C72.7221 346.921 74.7961 345.414 75.9131 343.253L90.4061 315.198L104.899 343.253C106.016 345.414 108.09 346.921 110.491 347.316L141.651 352.43L119.447 374.883Z" fill="white"/>
</g>
<defs>
<clipPath id="clip0">
<rect width="511.999" height="511.999" fill="white"/>
</clipPath>
</defs>
</svg>
