<svg width="24" height="24" viewBox="0 0 24 24" fill="none" xmlns="http://www.w3.org/2000/svg">
<path d="M19.2902 10.107C19.3142 7.215 16.8512 4.564 13.8002 4.197C13.7343 4.18878 13.6686 4.17878 13.6032 4.167C13.4498 4.13764 13.2943 4.12092 13.1382 4.117C12.5122 4.117 12.3452 4.557 12.3012 4.818C12.2582 5.073 12.2992 5.288 12.4222 5.455C12.6292 5.736 12.9942 5.786 13.2872 5.826C13.3722 5.838 13.4532 5.849 13.5212 5.864C16.2632 6.477 17.1862 7.44 17.6372 10.159C17.6482 10.225 17.6532 10.307 17.6592 10.394C17.6792 10.719 17.7192 11.395 18.4462 11.395C18.5062 11.395 18.5722 11.39 18.6402 11.38C19.3162 11.277 19.2952 10.659 19.2852 10.362C19.2822 10.278 19.2792 10.199 19.2872 10.146C19.2888 10.1327 19.2895 10.1194 19.2892 10.106L19.2902 10.107Z" fill="#505050"/>
<path d="M12.96 3.136C13.042 3.142 13.118 3.148 13.182 3.157C17.685 3.85 19.756 5.983 20.329 10.521C20.339 10.598 20.341 10.692 20.342 10.791C20.348 11.146 20.36 11.884 21.152 11.899H21.176C21.425 11.899 21.622 11.824 21.764 11.676C22.01 11.419 21.994 11.036 21.979 10.728C21.976 10.652 21.973 10.581 21.973 10.518C22.031 5.878 18.013 1.669 13.377 1.513C13.357 1.513 13.339 1.513 13.321 1.516C13.3028 1.5183 13.2844 1.5193 13.266 1.519C13.219 1.519 13.163 1.515 13.102 1.511C13.03 1.506 12.947 1.5 12.862 1.5C12.124 1.5 11.984 2.025 11.966 2.338C11.925 3.061 12.624 3.112 12.96 3.136V3.136ZM20.112 16.386C20.0154 16.3126 19.9197 16.2379 19.825 16.162C19.333 15.766 18.81 15.402 18.305 15.049L17.99 14.829C17.342 14.374 16.76 14.153 16.21 14.153C15.468 14.153 14.822 14.563 14.288 15.37C14.052 15.728 13.765 15.902 13.412 15.902C13.1668 15.8934 12.9262 15.8331 12.706 15.725C10.616 14.777 9.12201 13.323 8.26801 11.404C7.85501 10.476 7.98901 9.87 8.71501 9.376C9.12801 9.096 9.89501 8.575 9.84201 7.576C9.78001 6.443 7.27901 3.032 6.22501 2.645C5.77443 2.48064 5.28052 2.47923 4.82901 2.641C3.61801 3.048 2.75001 3.764 2.31501 4.709C1.89501 5.623 1.91501 6.696 2.36901 7.812C3.68401 11.039 5.53201 13.853 7.86301 16.175C10.144 18.448 12.948 20.309 16.196 21.708C16.489 21.834 16.796 21.903 17.021 21.953C17.097 21.97 17.163 21.985 17.211 21.998C17.2374 22.0051 17.2647 22.0088 17.292 22.009H17.318C18.846 22.009 20.681 20.613 21.244 19.022C21.738 17.628 20.836 16.939 20.112 16.386V16.386ZM13.636 6.823C13.375 6.829 12.83 6.843 12.639 7.397C12.549 7.657 12.56 7.881 12.671 8.066C12.833 8.336 13.144 8.42 13.426 8.466C14.451 8.63 14.978 9.196 15.083 10.249C15.132 10.739 15.463 11.082 15.886 11.082C15.9181 11.082 15.9502 11.0799 15.982 11.076C16.492 11.016 16.739 10.641 16.717 9.962C16.725 9.254 16.355 8.45 15.724 7.81C15.092 7.168 14.33 6.806 13.636 6.823V6.823Z" fill="#505050"/>
</svg>
